<svg width="26" height="26" viewBox="0 0 26 26" fill="none" xmlns="http://www.w3.org/2000/svg">
<path d="M14.25 12.8849C14.25 12.0104 14.9589 11.3015 15.8333 11.3015H23.75C24.6245 11.3015 25.3333 12.0104 25.3333 12.8849V23.9682C25.3333 24.8427 24.6245 25.5515 23.75 25.5515H15.8333C14.9589 25.5515 14.25 24.8427 14.25 23.9682V12.8849Z" fill="white"/>
<path d="M0 1.80153C0 0.927091 0.70889 0.218201 1.58333 0.218201H7.91667C8.79111 0.218201 9.5 0.927091 9.5 1.80153V12.8849C9.5 13.7593 8.79111 14.4682 7.91667 14.4682H1.58333C0.70889 14.4682 0 13.7593 0 12.8849V1.80153Z" fill="white"/>
<path d="M0 20.8015C0 19.9271 0.70889 19.2182 1.58333 19.2182H7.91667C8.79111 19.2182 9.5 19.9271 9.5 20.8015V23.9682C9.5 24.8427 8.79111 25.5515 7.91667 25.5515H1.58333C0.70889 25.5515 0 24.8427 0 23.9682V20.8015Z" fill="white"/>
<path d="M14.25 1.80153C14.25 0.927091 14.9589 0.218201 15.8333 0.218201H23.75C24.6245 0.218201 25.3333 0.927091 25.3333 1.80153V4.9682C25.3333 5.84264 24.6245 6.55153 23.75 6.55153H15.8333C14.9589 6.55153 14.25 5.84264 14.25 4.9682V1.80153Z" fill="white"/>
</svg>
