<svg width="21" height="21" viewBox="0 0 21 21" fill="none" xmlns="http://www.w3.org/2000/svg">
<path d="M20.7231 17.4588L19.5274 12.3741C18.9215 10.1139 16.8737 8.54257 14.5338 8.54257H6.46625C4.12631 8.54257 2.07815 10.1139 1.47264 12.3741L0.276949 17.4588C-0.0292324 18.9175 0.812983 20.3727 2.23061 20.8341L2.30046 20.8564C3.61255 21.2835 5.0442 20.7331 5.73297 19.5374L6.77346 17.9989C7.03444 17.5455 7.51805 17.2656 8.041 17.2656H12.9589C13.4819 17.2656 13.9652 17.5455 14.2265 17.9989L15.267 19.5374C15.9557 20.7331 17.3874 21.2835 18.6995 20.8564L18.7694 20.8341C20.187 20.3727 21.0292 18.9175 20.7231 17.4588ZM7.89035 14.0513H6.21523V15.7265H4.75688V14.0513H3.08205V12.5936H4.75688V10.9191H6.21523V12.5936H7.89035V14.0513ZM15.2701 10.5701C15.7774 10.5701 16.1884 10.9808 16.1884 11.488C16.1884 11.9946 15.7774 12.4053 15.2701 12.4053C14.7636 12.4053 14.3529 11.9946 14.3529 11.488C14.3529 10.9808 14.7636 10.5701 15.2701 10.5701ZM13.435 14.241C12.9285 14.241 12.5175 13.8301 12.5175 13.3225C12.5175 12.8163 12.9285 12.4053 13.435 12.4053C13.9419 12.4053 14.3526 12.8163 14.3526 13.3225C14.3526 13.8301 13.9419 14.241 13.435 14.241ZM15.2701 16.0758C14.7636 16.0758 14.3529 15.6651 14.3529 15.1586C14.3529 14.6513 14.7636 14.2407 15.2701 14.2407C15.7774 14.2407 16.1884 14.6513 16.1884 15.1586C16.1884 15.6651 15.7774 16.0758 15.2701 16.0758ZM17.1056 14.241C16.599 14.241 16.1884 13.8301 16.1884 13.3225C16.1884 12.8163 16.599 12.4053 17.1056 12.4053C17.6125 12.4053 18.0235 12.8163 18.0235 13.3225C18.0235 13.8301 17.6125 14.241 17.1056 14.241Z" fill="#4A4668"/>
<path d="M6.68409 2.41492C7.77154 1.66589 9.08326 1.2278 10.5002 1.22752C11.9171 1.22784 13.2285 1.66589 14.3163 2.41492C14.5955 2.60708 14.9777 2.53653 15.1702 2.25775C15.3623 1.97827 15.2921 1.59637 15.013 1.40388C13.7299 0.519914 12.1726 -0.00032797 10.5002 1.55122e-07C8.82777 -0.00032797 7.27012 0.519914 5.98748 1.40388C5.70833 1.59637 5.63811 1.97859 5.83022 2.25775C6.02275 2.5369 6.40494 2.60712 6.68409 2.41492Z" fill="#4A4668"/>
<path d="M13.4724 4.57509C13.6371 4.33568 13.5768 4.00792 13.3378 3.84316H13.3375C12.5316 3.28728 11.5513 2.95985 10.5003 2.96018C9.44912 2.95985 8.46893 3.28724 7.66264 3.84316C7.42323 4.00788 7.36294 4.33568 7.5277 4.57472C7.69242 4.81413 8.02021 4.87442 8.25925 4.70966C8.89869 4.26956 9.66757 4.01268 10.5002 4.01231C11.3328 4.01268 12.1014 4.26952 12.7405 4.70966C12.9799 4.87442 13.3073 4.81413 13.4724 4.57509Z" fill="#4A4668"/>
<path d="M9.33737 6.28138C9.13771 6.41874 9.08734 6.6917 9.22437 6.89104C9.36174 7.0907 9.63469 7.14107 9.83399 7.00408C10.0244 6.87324 10.2515 6.79719 10.5002 6.79719C10.7485 6.79719 10.9759 6.87357 11.1656 7.00375C11.3649 7.14107 11.6379 7.0907 11.7753 6.89141C11.9126 6.69207 11.8623 6.41907 11.6629 6.28175C11.3334 6.05436 10.9307 5.9204 10.5002 5.9204C10.0693 5.92003 9.66689 6.05465 9.33737 6.28138Z" fill="#4A4668"/>
</svg>
