<svg width="27" height="25" viewBox="0 0 27 25" fill="none" xmlns="http://www.w3.org/2000/svg">
<path d="M25.4137 18.5584C25.3648 18.5582 25.3176 18.5409 25.2802 18.5095C25.2428 18.478 25.2176 18.4344 25.2091 18.3863L23.7625 10.1817C23.7529 10.1273 23.7653 10.0713 23.797 10.0261C23.8286 9.98087 23.8769 9.95006 23.9313 9.94043C24.0411 9.92027 24.1522 9.99575 24.1725 10.1092L25.6191 18.3139C25.6244 18.3439 25.6231 18.3746 25.6152 18.404C25.6073 18.4334 25.593 18.4608 25.5734 18.4841C25.5539 18.5074 25.5294 18.5261 25.5018 18.5389C25.4742 18.5518 25.4441 18.5584 25.4137 18.5584ZM25.6309 19.7889C25.582 19.7888 25.5347 19.7715 25.4973 19.7401C25.4599 19.7086 25.4348 19.665 25.4263 19.6168C25.2384 18.5535 21.1668 18.3574 18.6442 18.4847C18.5185 18.4904 18.4311 18.4018 18.4258 18.2871C18.4244 18.2598 18.4284 18.2325 18.4376 18.2068C18.4467 18.181 18.4609 18.1574 18.4792 18.1371C18.4975 18.1168 18.5197 18.1004 18.5444 18.0887C18.5691 18.077 18.5958 18.0703 18.6231 18.069C19.3289 18.0332 25.5235 17.7736 25.8364 19.5444C25.8412 19.5714 25.8406 19.599 25.8347 19.6256C25.8288 19.6523 25.8176 19.6776 25.802 19.7C25.7863 19.7224 25.7663 19.7415 25.7433 19.7562C25.7202 19.7709 25.6945 19.7809 25.6676 19.7856C25.6553 19.7881 25.6431 19.7889 25.6309 19.7889Z" fill="#4A4668"/>
<path d="M17.6203 12.742C17.5714 12.7419 17.5241 12.7246 17.4867 12.6931C17.4493 12.6617 17.4241 12.6181 17.4156 12.5699C17.4061 12.5156 17.4185 12.4596 17.4501 12.4144C17.4818 12.3691 17.5301 12.3383 17.5845 12.3287C19.3532 12.0162 23.8715 10.8007 23.5452 8.95065C23.5356 8.89628 23.548 8.84033 23.5797 8.7951C23.6113 8.74987 23.6596 8.71905 23.714 8.7094C23.8247 8.68924 23.9353 8.76473 23.9552 8.87819C24.1554 10.012 23.1348 11.0092 20.9218 11.8421C19.3353 12.439 17.6736 12.7358 17.6569 12.7387C17.6448 12.741 17.6326 12.7421 17.6203 12.742Z" fill="#4A4668"/>
<path d="M23.7498 9.12277C23.7009 9.12267 23.6536 9.10535 23.6162 9.07385C23.5788 9.04235 23.5536 8.99868 23.5452 8.9505C23.5356 8.89613 23.548 8.84018 23.5797 8.79495C23.6113 8.74972 23.6596 8.71889 23.714 8.70925L24.5349 8.56485C24.6464 8.54693 24.7566 8.62059 24.7762 8.7341C24.7858 8.78848 24.7734 8.84444 24.7417 8.88968C24.71 8.93491 24.6617 8.96573 24.6073 8.97534L23.7865 9.1197C23.7744 9.12173 23.7621 9.12276 23.7498 9.12277Z" fill="#4A4668"/>
<path d="M26.451 19.6445C26.4021 19.6443 26.3549 19.627 26.3175 19.5956C26.2801 19.5641 26.2549 19.5205 26.2464 19.4724L24.3662 8.80625C24.3566 8.75188 24.369 8.69593 24.4006 8.65069C24.4323 8.60545 24.4806 8.57464 24.5349 8.56501C24.6464 8.54485 24.7562 8.62033 24.7762 8.73384L26.6564 19.4C26.6617 19.43 26.6603 19.4607 26.6524 19.4901C26.6445 19.5195 26.6303 19.5469 26.6107 19.5702C26.5912 19.5935 26.5667 19.6122 26.5391 19.6251C26.5115 19.6379 26.4814 19.6445 26.451 19.6445Z" fill="#4A4668"/>
<path d="M25.6309 19.7889C25.5787 19.789 25.5284 19.7695 25.4899 19.7343C25.4514 19.6991 25.4275 19.6507 25.423 19.5987C25.4185 19.5467 25.4337 19.4949 25.4656 19.4536C25.4974 19.4123 25.5437 19.3845 25.5951 19.3756L26.4151 19.2312C26.5254 19.2101 26.636 19.2862 26.6564 19.4C26.6659 19.4544 26.6535 19.5103 26.6219 19.5556C26.5903 19.6008 26.542 19.6316 26.4876 19.6413L25.6675 19.7856C25.6554 19.7879 25.6432 19.789 25.6309 19.7889ZM14.5311 19.2084C14.4822 19.2083 14.435 19.1909 14.3976 19.1595C14.3602 19.128 14.335 19.0844 14.3265 19.0363L13.3136 13.2932C13.3087 13.2663 13.3093 13.2387 13.3153 13.212C13.3212 13.1854 13.3324 13.1601 13.3482 13.1378C13.3637 13.1153 13.3835 13.0961 13.4066 13.0813C13.4297 13.0666 13.4554 13.0566 13.4824 13.052L17.5845 12.3287C17.6947 12.308 17.8054 12.384 17.8258 12.4975C17.8353 12.5519 17.8229 12.6079 17.7913 12.6531C17.7596 12.6983 17.7113 12.7292 17.6569 12.7388L13.7598 13.4258L14.7004 18.7589L18.5975 18.0719C18.7089 18.0511 18.8188 18.1272 18.8387 18.2406C18.8482 18.295 18.8358 18.3509 18.8042 18.3962C18.7725 18.4414 18.7242 18.4722 18.6699 18.4819L14.5678 19.2052C14.5555 19.2072 14.5433 19.2084 14.5311 19.2084Z" fill="#4A4668"/>
<path d="M14.5315 19.2084C14.5172 19.2086 14.5028 19.2071 14.4888 19.204L12.2929 18.7451C12.2522 18.7366 12.2149 18.7161 12.186 18.6862C12.157 18.6563 12.1378 18.6184 12.1307 18.5774L11.4073 14.4753C11.4 14.4343 11.4052 14.3921 11.4222 14.3541C11.4392 14.3161 11.4672 14.2841 11.5026 14.2622L13.4088 13.0801C13.4378 13.0624 13.4707 13.052 13.5046 13.0497C13.5386 13.0475 13.5725 13.0534 13.6037 13.067C13.6347 13.0809 13.6619 13.1021 13.6828 13.1289C13.7038 13.1558 13.7178 13.1873 13.7236 13.2208L14.7365 18.9639C14.7425 18.9974 14.7402 19.0318 14.7297 19.0642C14.7192 19.0966 14.7009 19.1258 14.6764 19.1494C14.6377 19.1873 14.5857 19.2085 14.5315 19.2084ZM12.5163 18.3659L14.2729 18.7333L13.3669 13.5959L11.8418 14.5421L12.5163 18.3659ZM18.4884 17.6643C18.4395 17.6641 18.3923 17.6468 18.3549 17.6153C18.3175 17.5839 18.2923 17.5403 18.2838 17.4922L17.5605 13.3901C17.5509 13.3357 17.5633 13.2798 17.595 13.2345C17.6266 13.1893 17.6749 13.1585 17.7293 13.1488C17.8408 13.1281 17.9506 13.2038 17.9705 13.3177L18.6938 17.4198C18.6991 17.4497 18.6978 17.4805 18.6899 17.5099C18.682 17.5393 18.6677 17.5666 18.6482 17.5899C18.6286 17.6132 18.6041 17.632 18.5765 17.6448C18.5489 17.6577 18.5189 17.6643 18.4884 17.6643Z" fill="#4A4668"/>
<path d="M12.5769 15.3228C12.528 15.3228 12.4806 15.3055 12.4432 15.274C12.4058 15.2425 12.3806 15.1988 12.3722 15.1507C12.3627 15.0962 12.3751 15.0403 12.4067 14.995C12.4383 14.9497 12.4866 14.9188 12.541 14.909L12.9511 14.8374C13.0626 14.8179 13.1724 14.8928 13.1923 15.0067C13.197 15.0336 13.1965 15.0611 13.1905 15.0878C13.1846 15.1145 13.1735 15.1397 13.1578 15.1621C13.1422 15.1844 13.1222 15.2035 13.0992 15.2181C13.0761 15.2328 13.0504 15.2428 13.0235 15.2475L12.6134 15.3199C12.6013 15.3217 12.5891 15.3226 12.5769 15.3228ZM13.0105 17.7843C12.9615 17.7842 12.9142 17.7669 12.8767 17.7353C12.8393 17.7038 12.8142 17.66 12.8059 17.6118C12.8011 17.5848 12.8017 17.5572 12.8076 17.5305C12.8136 17.5038 12.8247 17.4786 12.8404 17.4562C12.8562 17.4338 12.8761 17.4148 12.8992 17.4002C12.9223 17.3855 12.9481 17.3756 12.9751 17.3709L13.386 17.2985C13.4974 17.2798 13.6069 17.3546 13.6268 17.4677C13.6363 17.5222 13.6239 17.5783 13.5922 17.6236C13.5604 17.6689 13.512 17.6998 13.4575 17.7094L13.0467 17.781C13.0348 17.7833 13.0226 17.7844 13.0105 17.7843ZM12.7941 16.5537C12.7452 16.5535 12.698 16.5362 12.6606 16.5048C12.6232 16.4733 12.598 16.4297 12.5895 16.3816C12.5799 16.3272 12.5923 16.2713 12.624 16.226C12.6556 16.1808 12.7039 16.15 12.7582 16.1403L13.1683 16.0679C13.2781 16.0468 13.3893 16.1229 13.4095 16.2367C13.4191 16.2911 13.4067 16.347 13.375 16.3922C13.3434 16.4375 13.2951 16.4683 13.2407 16.478L12.8307 16.5504C12.8185 16.5525 12.8063 16.5537 12.7941 16.5537ZM13.8924 13.1879C13.8403 13.1879 13.7901 13.1683 13.7518 13.1331C13.7134 13.0979 13.6896 13.0496 13.6851 12.9977C13.6806 12.9458 13.6957 12.8941 13.7275 12.8528C13.7592 12.8115 13.8053 12.7836 13.8566 12.7746L14.6767 12.6298C14.7865 12.6096 14.8976 12.6851 14.9179 12.7985C14.9275 12.8529 14.9151 12.9089 14.8834 12.9541C14.8518 12.9993 14.8035 13.0302 14.7491 13.0398L13.929 13.1846C13.9169 13.1867 13.9046 13.1879 13.8924 13.1879ZM20.129 24.5659C20.0904 24.5659 20.0526 24.5552 20.0198 24.535C19.9869 24.5147 19.9604 24.4857 19.9431 24.4512L17.9889 20.5664C17.9372 20.4634 17.9783 20.3381 18.0812 20.2869C18.1828 20.2348 18.3085 20.2759 18.3606 20.3792L20.3149 24.2641C20.3666 24.367 20.3255 24.4923 20.2226 24.5435C20.1936 24.5584 20.1615 24.5661 20.129 24.5659ZM18.0779 24.9279C18.0394 24.9279 18.0015 24.9172 17.9687 24.897C17.9359 24.8767 17.9093 24.8477 17.8921 24.8132L15.9378 20.9275C15.8861 20.8246 15.9273 20.6993 16.0301 20.6481C16.1322 20.596 16.2575 20.6367 16.3096 20.7404L18.2639 24.6261C18.3155 24.729 18.2744 24.8543 18.1715 24.9055C18.1426 24.9204 18.1105 24.9281 18.0779 24.9279Z" fill="#4A4668"/>
<path d="M17.6667 25C17.6178 24.9999 17.5705 24.9826 17.5331 24.9511C17.4957 24.9197 17.4705 24.876 17.4621 24.8279C17.4573 24.8009 17.4579 24.7733 17.4638 24.7467C17.4697 24.72 17.4808 24.6947 17.4965 24.6723C17.5122 24.6499 17.5321 24.6308 17.5551 24.6161C17.5782 24.6014 17.6039 24.5914 17.6308 24.5866L20.5029 24.0802C20.6135 24.0594 20.7237 24.1351 20.7441 24.249C20.7536 24.3033 20.7412 24.3593 20.7096 24.4045C20.6779 24.4497 20.6296 24.4805 20.5753 24.4902L17.7033 24.9967C17.6912 24.999 17.679 25.0001 17.6667 25ZM15.1584 20.367C15.1096 20.3669 15.0623 20.3496 15.0249 20.3181C14.9875 20.2867 14.9623 20.2431 14.9538 20.1949L14.8724 19.7332C14.8677 19.7063 14.8683 19.6787 14.8742 19.652C14.8801 19.6253 14.8912 19.6 14.9069 19.5776C14.9226 19.5552 14.9425 19.5361 14.9656 19.5214C14.9886 19.5067 15.0143 19.4967 15.0413 19.492C15.1515 19.4708 15.2622 19.5473 15.2825 19.6608L15.3638 20.1225C15.3691 20.1525 15.3678 20.1833 15.3599 20.2127C15.352 20.2421 15.3377 20.2694 15.3182 20.2927C15.2986 20.316 15.2741 20.3347 15.2465 20.3475C15.2189 20.3604 15.1889 20.367 15.1584 20.367Z" fill="#4A4668"/>
<path d="M15.1584 20.367C15.1094 20.3669 15.0619 20.3495 15.0244 20.3179C14.9869 20.2863 14.9618 20.2425 14.9534 20.1942C14.944 20.1397 14.9567 20.0837 14.9886 20.0386C15.0205 19.9934 15.069 19.9628 15.1234 19.9533L18.8171 19.3147C18.8715 19.3058 18.9272 19.3187 18.9722 19.3505C19.0173 19.3823 19.048 19.4305 19.0579 19.4847C19.0672 19.5392 19.0546 19.5951 19.0227 19.6403C18.9908 19.6854 18.9423 19.7161 18.8878 19.7255L15.1942 20.3642C15.1824 20.3657 15.1702 20.367 15.1584 20.367Z" fill="#4A4668"/>
<path d="M18.8521 19.7283C18.8032 19.7282 18.7559 19.7109 18.7185 19.6794C18.6811 19.6479 18.656 19.6043 18.6475 19.5562L18.575 19.1462C18.5655 19.0918 18.5779 19.0359 18.6095 18.9906C18.6412 18.9454 18.6895 18.9146 18.7438 18.9049C18.8549 18.8842 18.9651 18.9603 18.9851 19.0738L19.0575 19.4838C19.0628 19.5138 19.0614 19.5446 19.0535 19.574C19.0456 19.6034 19.0314 19.6307 19.0118 19.654C18.9922 19.6773 18.9678 19.696 18.9402 19.7089C18.9126 19.7217 18.8825 19.7284 18.8521 19.7283ZM26.4514 12.9133C26.4241 12.9133 26.397 12.9079 26.3717 12.8975C26.3464 12.887 26.3235 12.8717 26.3041 12.8523C26.2848 12.833 26.2694 12.81 26.259 12.7848C26.2485 12.7595 26.2431 12.7324 26.2432 12.705V0.208322C26.2432 0.0931952 26.3363 2.6082e-08 26.4514 2.6082e-08C26.5666 2.6082e-08 26.6597 0.0931952 26.6597 0.208322V12.705C26.6597 12.7324 26.6543 12.7595 26.6439 12.7848C26.6334 12.81 26.6181 12.833 26.5987 12.8523C26.5794 12.8717 26.5564 12.887 26.5312 12.8975C26.5059 12.9079 26.4788 12.9133 26.4514 12.9133ZM2.70763 18.7451C2.68027 18.7451 2.65319 18.7398 2.62791 18.7293C2.60264 18.7188 2.57967 18.7035 2.56033 18.6841C2.54099 18.6648 2.52565 18.6418 2.51518 18.6166C2.50472 18.5913 2.49935 18.5642 2.49936 18.5368V0.208322C2.49935 0.180965 2.50472 0.153874 2.51518 0.128596C2.52564 0.103319 2.54098 0.0803505 2.56033 0.061004C2.57967 0.0416574 2.60263 0.026312 2.62791 0.0158446C2.65318 0.00537727 2.68027 -6.82165e-06 2.70763 2.6082e-08C2.73499 -1.36682e-05 2.76209 0.00536533 2.78737 0.0158296C2.81265 0.0262939 2.83562 0.0416383 2.85497 0.0609855C2.87431 0.0803327 2.88966 0.103303 2.90012 0.128584C2.91059 0.153865 2.91596 0.180961 2.91595 0.208322V18.5368C2.91596 18.5642 2.91058 18.5913 2.90012 18.6166C2.88966 18.6419 2.87431 18.6648 2.85496 18.6842C2.83561 18.7035 2.81264 18.7188 2.78736 18.7293C2.76208 18.7398 2.73499 18.7451 2.70763 18.7451Z" fill="#4A4668"/>
<path d="M1.45793 19.9947C1.43058 19.9947 1.40349 19.9894 1.37821 19.9789C1.35293 19.9685 1.32996 19.9531 1.31062 19.9338C1.29128 19.9144 1.27594 19.8915 1.26548 19.8662C1.25502 19.8409 1.24964 19.8138 1.24966 19.7865C1.24965 19.7591 1.25503 19.732 1.26549 19.7067C1.27595 19.6815 1.29129 19.6585 1.31063 19.6392C1.32998 19.6198 1.35294 19.6045 1.37822 19.594C1.40349 19.5836 1.43058 19.5782 1.45793 19.5782C2.03232 19.5782 2.49934 19.1112 2.49934 18.5368C2.49932 18.5095 2.5047 18.4824 2.51516 18.4571C2.52562 18.4318 2.54096 18.4089 2.56031 18.3895C2.57965 18.3702 2.60261 18.3549 2.62789 18.3444C2.65316 18.3339 2.68025 18.3286 2.70761 18.3286C2.73496 18.3285 2.76206 18.3339 2.78734 18.3444C2.81262 18.3548 2.83559 18.3702 2.85494 18.3895C2.87429 18.4089 2.88963 18.4318 2.9001 18.4571C2.91056 18.4824 2.91594 18.5095 2.91593 18.5368C2.91593 19.3406 2.26179 19.9947 1.45793 19.9947Z" fill="#4A4668"/>
<path d="M1.45794 19.9947C0.654086 19.9947 0 19.3406 0 18.5368C0 18.4217 0.0931431 18.3286 0.20827 18.3286C0.323396 18.3286 0.41654 18.4217 0.41654 18.5368C0.41654 19.1112 0.883558 19.5782 1.45794 19.5782C1.48529 19.5782 1.51238 19.5836 1.53766 19.594C1.56293 19.6045 1.5859 19.6198 1.60524 19.6392C1.62458 19.6585 1.63992 19.6815 1.65038 19.7067C1.66085 19.732 1.66622 19.7591 1.66621 19.7865C1.66624 19.8138 1.66087 19.8409 1.65041 19.8662C1.63996 19.8915 1.62462 19.9144 1.60527 19.9338C1.58593 19.9531 1.56296 19.9685 1.53767 19.9789C1.51239 19.9894 1.4853 19.9948 1.45794 19.9947Z" fill="#4A4668"/>
<path d="M0.20827 18.7451C0.180914 18.7451 0.153822 18.7398 0.128544 18.7293C0.103266 18.7188 0.0802988 18.7035 0.060955 18.6842C0.0416113 18.6648 0.0262711 18.6418 0.0158118 18.6166C0.00535254 18.5913 -2.04918e-05 18.5642 5.8728e-08 18.5368V1.45794C5.8728e-08 1.34281 0.0931432 1.24967 0.20827 1.24967C0.323396 1.24967 0.41654 1.34281 0.41654 1.45794V18.5368C0.41656 18.5642 0.411187 18.5913 0.400728 18.6166C0.390269 18.6418 0.374928 18.6648 0.355585 18.6842C0.336241 18.7035 0.313273 18.7188 0.287996 18.7293C0.262718 18.7398 0.235626 18.7451 0.20827 18.7451ZM1.87453 18.7451C1.84718 18.7451 1.82008 18.7398 1.79481 18.7293C1.76953 18.7188 1.74656 18.7035 1.72722 18.6842C1.70787 18.6648 1.69253 18.6418 1.68207 18.6166C1.67161 18.5913 1.66624 18.5642 1.66626 18.5368V0.624858C1.66626 0.509731 1.75941 0.416588 1.87453 0.416588C1.98966 0.416588 2.0828 0.509731 2.0828 0.624858V18.5368C2.08282 18.5642 2.07745 18.5913 2.06699 18.6166C2.05653 18.6418 2.04119 18.6648 2.02185 18.6842C2.0025 18.7035 1.97954 18.7188 1.95426 18.7293C1.92898 18.7398 1.90189 18.7451 1.87453 18.7451ZM1.0414 18.7451C1.01405 18.7451 0.986958 18.7397 0.961684 18.7293C0.936409 18.7188 0.913444 18.7035 0.894102 18.6841C0.874759 18.6648 0.859419 18.6418 0.848957 18.6166C0.838495 18.5913 0.833118 18.5642 0.833131 18.5368V1.0414C0.833118 1.01404 0.838495 0.986954 0.848957 0.96168C0.859419 0.936405 0.874759 0.91344 0.894102 0.894098C0.913444 0.874755 0.936409 0.859415 0.961684 0.848953C0.986958 0.838491 1.01405 0.833114 1.0414 0.833127C1.06876 0.833107 1.09585 0.838479 1.12113 0.848938C1.14642 0.859397 1.16939 0.874736 1.18873 0.894079C1.20808 0.913422 1.22343 0.936389 1.23389 0.961667C1.24436 0.986945 1.24974 1.01404 1.24972 1.0414V18.5368C1.24973 18.5642 1.24435 18.5913 1.23388 18.6166C1.22341 18.6418 1.20807 18.6648 1.18872 18.6841C1.16937 18.7035 1.1464 18.7188 1.12113 18.7293C1.09585 18.7397 1.06876 18.7451 1.0414 18.7451Z" fill="#4A4668"/>
<path d="M1.45793 19.1616C1.34281 19.1616 1.24966 19.0685 1.24966 18.9534C1.24966 18.8383 1.34281 18.7451 1.45793 18.7451C1.51314 18.745 1.56605 18.723 1.60508 18.684C1.64412 18.645 1.66609 18.592 1.6662 18.5368C1.6662 18.4217 1.75935 18.3286 1.87447 18.3286C1.9896 18.3286 2.08274 18.4217 2.08274 18.5368C2.0828 18.8813 1.80253 19.1616 1.45793 19.1616Z" fill="#4A4668"/>
<path d="M1.45793 19.1617C1.11338 19.1617 0.833069 18.8813 0.833069 18.5368C0.833055 18.5095 0.838433 18.4824 0.848895 18.4571C0.859356 18.4319 0.874697 18.4089 0.894039 18.3895C0.913381 18.3702 0.936346 18.3549 0.961621 18.3444C0.986896 18.3339 1.01398 18.3286 1.04134 18.3286C1.0687 18.3286 1.09579 18.3339 1.12107 18.3444C1.14635 18.3548 1.16932 18.3702 1.18867 18.3895C1.20802 18.4089 1.22336 18.4318 1.23383 18.4571C1.24429 18.4824 1.24967 18.5095 1.24966 18.5368C1.24977 18.592 1.27175 18.645 1.31078 18.684C1.34982 18.723 1.40273 18.745 1.45793 18.7451C1.57306 18.7451 1.6662 18.8383 1.6662 18.9534C1.6662 19.0685 1.57306 19.1617 1.45793 19.1617ZM13.1606 19.9947H1.45793C1.43057 19.9948 1.40348 19.9894 1.3782 19.9789C1.35293 19.9685 1.32996 19.9531 1.31062 19.9338C1.29127 19.9144 1.27593 19.8915 1.26547 19.8662C1.25501 19.8409 1.24964 19.8138 1.24966 19.7865C1.24965 19.7591 1.25502 19.732 1.26549 19.7067C1.27595 19.6815 1.29129 19.6585 1.31063 19.6392C1.32997 19.6198 1.35294 19.6045 1.37821 19.594C1.40349 19.5836 1.43058 19.5782 1.45793 19.5782H13.1606C13.1879 19.5782 13.215 19.5836 13.2403 19.594C13.2656 19.6045 13.2885 19.6198 13.3079 19.6392C13.3272 19.6585 13.3426 19.6815 13.3531 19.7067C13.3635 19.732 13.3689 19.7591 13.3689 19.7865C13.3689 19.8138 13.3635 19.8409 13.3531 19.8662C13.3426 19.8915 13.3273 19.9144 13.3079 19.9338C13.2886 19.9531 13.2656 19.9685 13.2403 19.9789C13.215 19.9894 13.1879 19.9948 13.1606 19.9947ZM26.4514 0.416592H2.7076C2.68025 0.416599 2.65316 0.411216 2.62789 0.400752C2.60262 0.390288 2.57966 0.374947 2.56032 0.355606C2.54098 0.336265 2.52564 0.313303 2.51517 0.288031C2.50471 0.26276 2.49932 0.235674 2.49933 0.208322C2.49932 0.180965 2.5047 0.153874 2.51516 0.128596C2.52562 0.103319 2.54096 0.0803505 2.5603 0.061004C2.57964 0.0416574 2.6026 0.026312 2.62788 0.0158446C2.65315 0.00537727 2.68024 -6.82163e-06 2.7076 2.61049e-08H26.4514C26.4788 -1.36746e-05 26.5058 0.00536569 26.5311 0.0158306C26.5564 0.0262956 26.5794 0.0416408 26.5987 0.0609887C26.6181 0.0803365 26.6334 0.103308 26.6439 0.128588C26.6543 0.153869 26.6597 0.180963 26.6597 0.208322C26.6597 0.235676 26.6543 0.262765 26.6438 0.288039C26.6334 0.313314 26.618 0.336279 26.5987 0.355621C26.5794 0.374964 26.5564 0.390304 26.5311 0.400766C26.5058 0.411228 26.4788 0.416605 26.4514 0.416592ZM24.7851 4.58214H5.20694C5.17959 4.58216 5.15249 4.57679 5.12722 4.56633C5.10194 4.55587 5.07897 4.54053 5.05963 4.52119C5.04028 4.50185 5.02494 4.47888 5.01448 4.4536C5.00403 4.42832 4.99865 4.40123 4.99867 4.37387V1.87453C4.99865 1.84717 5.00403 1.82008 5.01448 1.7948C5.02494 1.76952 5.04028 1.74655 5.05962 1.7272C5.07897 1.70785 5.10194 1.69251 5.12721 1.68204C5.15249 1.67158 5.17958 1.6662 5.20694 1.66621H24.7851C24.8125 1.6662 24.8396 1.67158 24.8649 1.68204C24.8901 1.69251 24.9131 1.70785 24.9325 1.7272C24.9518 1.74655 24.9671 1.76952 24.9776 1.7948C24.9881 1.82008 24.9934 1.84717 24.9934 1.87453V4.37387C24.9934 4.40123 24.9881 4.42832 24.9776 4.4536C24.9671 4.47888 24.9518 4.50185 24.9325 4.52119C24.9131 4.54053 24.8901 4.55587 24.8649 4.56633C24.8396 4.57679 24.8125 4.58216 24.7851 4.58214ZM5.41521 4.1656H24.5769V2.0828H5.41521V4.1656Z" fill="#4A4668"/>
<path d="M23.5355 3.33247H6.45663C6.3415 3.33247 6.24836 3.23933 6.24836 3.1242C6.24836 3.00907 6.3415 2.91593 6.45663 2.91593H23.5355C23.6506 2.91593 23.7437 3.00907 23.7437 3.1242C23.7437 3.23933 23.6506 3.33247 23.5355 3.33247ZM23.952 19.9947H20.203C20.1757 19.9948 20.1486 19.9894 20.1233 19.9789C20.098 19.9685 20.075 19.9531 20.0557 19.9338C20.0363 19.9144 20.021 19.8915 20.0106 19.8662C20.0001 19.8409 19.9947 19.8138 19.9947 19.7865C19.9947 19.7591 20.0001 19.732 20.0106 19.7067C20.021 19.6815 20.0364 19.6585 20.0557 19.6392C20.075 19.6198 20.098 19.6045 20.1233 19.594C20.1486 19.5836 20.1757 19.5782 20.203 19.5782H23.952C23.9794 19.5782 24.0065 19.5835 24.0317 19.594C24.057 19.6045 24.08 19.6198 24.0993 19.6391C24.1187 19.6585 24.134 19.6815 24.1445 19.7067C24.1549 19.732 24.1603 19.7591 24.1603 19.7865C24.1603 19.8138 24.1549 19.8409 24.1445 19.8662C24.134 19.8915 24.1187 19.9144 24.0994 19.9338C24.08 19.9531 24.057 19.9685 24.0318 19.9789C24.0065 19.9894 23.9794 19.9948 23.952 19.9947ZM11.0388 9.99736H5.20696C5.1796 9.99739 5.15251 9.99201 5.12723 9.98155C5.10195 9.97109 5.07899 9.95575 5.05964 9.93641C5.0403 9.91707 5.02496 9.8941 5.0145 9.86882C5.00404 9.84354 4.99867 9.81645 4.99869 9.7891V6.04008C4.99867 6.01273 5.00404 5.98563 5.0145 5.96036C5.02496 5.93508 5.0403 5.91211 5.05964 5.89277C5.07899 5.87342 5.10195 5.85808 5.12723 5.84762C5.15251 5.83717 5.1796 5.83179 5.20696 5.83181H11.0388C11.0661 5.8318 11.0932 5.83718 11.1185 5.84764C11.1438 5.8581 11.1667 5.87344 11.1861 5.89278C11.2054 5.91213 11.2208 5.93509 11.2312 5.96036C11.2417 5.98564 11.2471 6.01273 11.247 6.04008V9.7891C11.2471 9.81645 11.2417 9.84353 11.2312 9.86881C11.2208 9.89408 11.2054 9.91705 11.1861 9.93639C11.1668 9.95573 11.1438 9.97108 11.1185 9.98154C11.0933 9.992 11.0662 9.99738 11.0388 9.99736ZM5.41523 9.58083H10.8305V6.24835H5.41523V9.58083Z" fill="#4A4668"/>
<path d="M7.70635 9.58083C7.66771 9.58074 7.62985 9.56992 7.597 9.54958C7.56415 9.52924 7.53759 9.50017 7.5203 9.46562C7.503 9.43107 7.49564 9.39239 7.49904 9.3539C7.50244 9.31541 7.51646 9.27862 7.53954 9.24764L8.78921 7.58143C8.82243 7.53731 8.87177 7.50816 8.92644 7.50034C8.98111 7.49253 9.03664 7.5067 9.08088 7.53975C9.12503 7.57289 9.15423 7.62218 9.16209 7.67682C9.16995 7.73145 9.15583 7.78697 9.12282 7.83121L7.87315 9.49742C7.85373 9.52333 7.82855 9.54435 7.7996 9.55883C7.77064 9.5733 7.73872 9.58084 7.70635 9.58083Z" fill="#4A4668"/>
<path d="M10.2056 9.58083C10.1733 9.58085 10.1413 9.57332 10.1124 9.55884C10.0835 9.54436 10.0583 9.52333 10.0389 9.49743L8.78921 7.83122C8.75618 7.78699 8.74205 7.73146 8.7499 7.67683C8.75775 7.62219 8.78695 7.57289 8.83109 7.53975C8.85298 7.52333 8.87789 7.51138 8.90439 7.50459C8.93089 7.49779 8.95848 7.49629 8.98557 7.50016C9.01265 7.50403 9.03871 7.5132 9.06225 7.52714C9.08579 7.54109 9.10636 7.55953 9.12277 7.58143L10.3724 9.24764C10.3955 9.27862 10.4095 9.31541 10.4129 9.3539C10.4163 9.39239 10.409 9.43107 10.3917 9.46562C10.3744 9.50017 10.3478 9.52924 10.315 9.54958C10.2821 9.56992 10.2443 9.58074 10.2056 9.58083ZM6.45667 9.58083C6.41898 9.58082 6.38199 9.57058 6.34966 9.5512C6.31733 9.53183 6.29085 9.50405 6.27307 9.47081C6.25528 9.43758 6.24684 9.40014 6.24865 9.36249C6.25047 9.32484 6.26246 9.28839 6.28336 9.25702L7.11649 8.00734C7.14719 7.96146 7.19483 7.92962 7.24896 7.9188C7.3031 7.90798 7.35932 7.91907 7.40529 7.94962C7.45124 7.98027 7.48314 8.02791 7.49397 8.08207C7.5048 8.13623 7.49369 8.19247 7.46307 8.23843L6.62994 9.4881C6.61092 9.51663 6.58516 9.54002 6.55493 9.5562C6.52471 9.57237 6.49095 9.58083 6.45667 9.58083Z" fill="#4A4668"/>
<path d="M7.56721 8.74775C7.53292 8.74776 7.49916 8.7393 7.46892 8.72313C7.43868 8.70695 7.41291 8.68356 7.39389 8.65502L7.11644 8.23843C7.10127 8.21568 7.09072 8.19016 7.08541 8.16332C7.0801 8.13649 7.08013 8.10888 7.0855 8.08206C7.09086 8.05524 7.10146 8.02974 7.11668 8.00702C7.1319 7.98429 7.15145 7.96479 7.17422 7.94962C7.26897 7.88571 7.39879 7.9116 7.46302 8.00734L7.74042 8.42394C7.76135 8.45529 7.77337 8.49174 7.77521 8.5294C7.77704 8.56705 7.76862 8.6045 7.75084 8.63774C7.73306 8.67098 7.70658 8.69878 7.67424 8.71815C7.6419 8.73752 7.60491 8.74775 7.56721 8.74775ZM6.45668 7.91462C6.11213 7.91462 5.83182 7.63436 5.83182 7.28981C5.83182 6.94526 6.11208 6.66495 6.45668 6.66495C6.80128 6.66495 7.08149 6.94526 7.08149 7.28981C7.08149 7.63436 6.80123 7.91462 6.45668 7.91462ZM6.45668 7.08149C6.34197 7.08149 6.24841 7.17484 6.24841 7.28976C6.24841 7.40468 6.34197 7.49803 6.45668 7.49803C6.57139 7.49803 6.66495 7.40468 6.66495 7.28976C6.66495 7.17484 6.57139 7.08149 6.45668 7.08149Z" fill="#4A4668"/>
<path d="M17.7037 6.24835H12.2884C12.1733 6.24835 12.0801 6.15521 12.0801 6.04008C12.0801 5.92495 12.1733 5.83181 12.2884 5.83181H17.7037C17.8188 5.83181 17.912 5.92495 17.912 6.04008C17.912 6.15521 17.8188 6.24835 17.7037 6.24835Z" fill="#4A4668"/>
<path d="M17.7037 7.49803H12.2884C12.1733 7.49803 12.0801 7.40488 12.0801 7.28976C12.0801 7.17463 12.1733 7.08149 12.2884 7.08149H17.7037C17.8188 7.08149 17.912 7.17463 17.912 7.28976C17.912 7.40488 17.8188 7.49803 17.7037 7.49803Z" fill="#4A4668"/>
<path d="M17.7037 8.74775H12.2884C12.1733 8.74775 12.0801 8.65461 12.0801 8.53948C12.0801 8.42435 12.1733 8.33116 12.2884 8.33116H17.7037C17.8188 8.33116 17.912 8.42435 17.912 8.53948C17.912 8.65461 17.8188 8.74775 17.7037 8.74775Z" fill="#4A4668"/>
<path d="M17.7037 9.99737H12.2884C12.1733 9.99737 12.0801 9.90422 12.0801 9.7891C12.0801 9.67397 12.1733 9.58083 12.2884 9.58083H17.7037C17.8188 9.58083 17.912 9.67397 17.912 9.7891C17.912 9.90422 17.8188 9.99737 17.7037 9.99737Z" fill="#4A4668"/>
<path d="M17.7037 11.247H12.2884C12.1733 11.247 12.0801 11.1539 12.0801 11.0388C12.0801 10.9236 12.1733 10.8305 12.2884 10.8305H17.7037C17.8188 10.8305 17.912 10.9236 17.912 11.0388C17.912 11.1539 17.8188 11.247 17.7037 11.247Z" fill="#4A4668"/>
<path d="M13.1216 12.4968H12.2884C12.1733 12.4968 12.0801 12.4036 12.0801 12.2885C12.0801 12.1734 12.1733 12.0802 12.2884 12.0802H13.1216C13.2367 12.0802 13.3298 12.1734 13.3298 12.2885C13.3298 12.4036 13.2367 12.4968 13.1216 12.4968Z" fill="#4A4668"/>
<path d="M11.0583 11.247H5.22649C5.11136 11.247 5.01822 11.1539 5.01822 11.0388C5.01822 10.9236 5.11136 10.8305 5.22649 10.8305H11.0583C11.1734 10.8305 11.2666 10.9236 11.2666 11.0388C11.2666 11.1539 11.1734 11.247 11.0583 11.247Z" fill="#4A4668"/>
<path d="M10.2252 16.2457H5.22649C5.11136 16.2457 5.01822 16.1526 5.01822 16.0375C5.01822 15.9223 5.11136 15.8292 5.22649 15.8292H10.2252C10.3403 15.8292 10.4334 15.9223 10.4334 16.0375C10.4334 16.1526 10.3403 16.2457 10.2252 16.2457Z" fill="#4A4668"/>
<path d="M10.6417 17.4955H5.22649C5.11136 17.4955 5.01822 17.4023 5.01822 17.2872C5.01822 17.1721 5.11136 17.0789 5.22649 17.0789H10.6417C10.7568 17.0789 10.85 17.1721 10.85 17.2872C10.85 17.4023 10.7568 17.4955 10.6417 17.4955Z" fill="#4A4668"/>
<path d="M11.0583 18.7451H5.22649C5.11136 18.7451 5.01822 18.652 5.01822 18.5368C5.01822 18.4217 5.11136 18.3286 5.22649 18.3286H11.0583C11.1734 18.3286 11.2666 18.4217 11.2666 18.5368C11.2666 18.652 11.1734 18.7451 11.0583 18.7451Z" fill="#4A4668"/>
<path d="M11.0583 12.4968H5.22649C5.11136 12.4968 5.01822 12.4036 5.01822 12.2885C5.01822 12.1734 5.11136 12.0802 5.22649 12.0802H11.0583C11.1734 12.0802 11.2666 12.1734 11.2666 12.2885C11.2666 12.4036 11.1734 12.4968 11.0583 12.4968Z" fill="#4A4668"/>
<path d="M10.6417 13.7464H5.22649C5.11136 13.7464 5.01822 13.6533 5.01822 13.5382C5.01822 13.423 5.11136 13.3298 5.22649 13.3298H10.6417C10.7568 13.3298 10.85 13.423 10.85 13.5382C10.85 13.6533 10.7568 13.7464 10.6417 13.7464Z" fill="#4A4668"/>
<path d="M10.2252 14.9961H5.22649C5.19913 14.9961 5.17205 14.9907 5.14677 14.9803C5.1215 14.9698 5.09853 14.9545 5.07919 14.9351C5.05985 14.9158 5.04451 14.8928 5.03404 14.8676C5.02358 14.8423 5.01821 14.8152 5.01822 14.7878C5.0182 14.7605 5.02357 14.7334 5.03403 14.7081C5.04449 14.6828 5.05983 14.6598 5.07917 14.6405C5.09851 14.6212 5.12148 14.6058 5.14676 14.5953C5.17204 14.5849 5.19913 14.5795 5.22649 14.5795H10.2252C10.2525 14.5795 10.2796 14.5849 10.3049 14.5953C10.3302 14.6058 10.3531 14.6212 10.3725 14.6405C10.3918 14.6598 10.4072 14.6828 10.4176 14.7081C10.4281 14.7334 10.4335 14.7605 10.4334 14.7878C10.4335 14.8152 10.4281 14.8423 10.4176 14.8676C10.4072 14.8928 10.3918 14.9158 10.3725 14.9351C10.3531 14.9545 10.3302 14.9698 10.3049 14.9803C10.2796 14.9907 10.2525 14.9961 10.2252 14.9961Z" fill="#4A4668"/>
<path d="M24.7851 6.24835H18.9534C18.8382 6.24835 18.7451 6.15521 18.7451 6.04008C18.7451 5.92495 18.8382 5.83181 18.9534 5.83181H24.7851C24.9003 5.83181 24.9934 5.92495 24.9934 6.04008C24.9934 6.15521 24.9003 6.24835 24.7851 6.24835Z" fill="#4A4668"/>
<path d="M24.7851 7.49803H18.9534C18.8382 7.49803 18.7451 7.40488 18.7451 7.28976C18.7451 7.17463 18.8382 7.08149 18.9534 7.08149H24.7851C24.9003 7.08149 24.9934 7.17463 24.9934 7.28976C24.9934 7.40488 24.9003 7.49803 24.7851 7.49803Z" fill="#4A4668"/>
<path d="M22.7024 8.74775H18.9534C18.8382 8.74775 18.7451 8.65461 18.7451 8.53948C18.7451 8.42435 18.8382 8.33116 18.9534 8.33116H22.7024C22.8175 8.33116 22.9107 8.42435 22.9107 8.53948C22.9107 8.65461 22.8175 8.74775 22.7024 8.74775Z" fill="#4A4668"/>
<path d="M21.4527 9.99737H18.9534C18.8382 9.99737 18.7451 9.90422 18.7451 9.7891C18.7451 9.67397 18.8382 9.58083 18.9534 9.58083H21.4527C21.5678 9.58083 21.661 9.67397 21.661 9.7891C21.661 9.90422 21.5678 9.99737 21.4527 9.99737Z" fill="#4A4668"/>
<path d="M19.3699 11.247H18.9534C18.8382 11.247 18.7451 11.1539 18.7451 11.0388C18.7451 10.9236 18.8382 10.8305 18.9534 10.8305H19.3699C19.485 10.8305 19.5782 10.9236 19.5782 11.0388C19.5782 11.1539 19.485 11.247 19.3699 11.247Z" fill="#4A4668"/>
</svg>
