<svg width="23" height="23" viewBox="0 0 23 23" fill="none" xmlns="http://www.w3.org/2000/svg">
<path d="M14.5779 5.38884L11.2825 5.42118L14.1 3.88485L13.4333 1.50579L15.3039 2.92532L17.1852 1.48602L16.6911 3.42305L19.7925 3.77884L16.5653 5.03665L15.2787 7.28274L14.5779 5.38884Z" fill="#FFE36C"/>
<path d="M16.5798 2.40245L16.4432 2.93432L16.2402 3.73393L17.0595 3.82737L18.3066 3.96932L16.5528 4.65393L16.3156 4.74557L16.1899 4.96659L15.3489 6.43464L15.0039 5.50026L14.8278 5.02409L14.3211 5.03128L12.7201 5.04745L14.021 4.33768L14.5242 4.06276L14.3696 3.51112L14.0695 2.44018L14.8674 3.04573L15.304 3.37636L15.7388 3.04393L16.5798 2.40245ZM15.3022 2.47253L13.0256 0.74573C12.9519 0.690027 12.8495 0.760105 12.8746 0.848152L13.676 3.70698L10.1829 5.61167C10.0949 5.66018 10.129 5.79315 10.2296 5.79136L14.3283 5.75003L15.1369 7.93682C15.1656 8.01409 15.2699 8.02128 15.3112 7.9512L16.8152 5.32417L20.9156 3.72495C21.0091 3.68901 20.9911 3.55065 20.8923 3.53987L17.1422 3.11221L17.7208 0.839168C17.7442 0.751121 17.6417 0.68284 17.5699 0.738543L15.3022 2.47253Z" fill="#FF8F00"/>
<path d="M16.9965 7.95839C16.7683 7.92605 15.6309 9.05988 14.8097 8.34832L14.8079 8.35011C14.3266 7.95935 13.8006 7.62701 13.2411 7.36004C9.33287 5.49668 4.65201 7.15339 2.78685 11.0634C0.923495 14.9716 2.58021 19.6525 6.49021 21.5176C10.3984 23.381 15.0793 21.7243 16.9444 17.8143C17.55 16.5457 17.7836 15.1962 17.6883 13.8881C17.6812 13.7964 17.665 13.5934 17.7099 13.4425C18.0172 12.4111 19.1348 11.8971 19.1115 11.8486C19.0881 11.7983 17.2265 7.99074 16.9965 7.95839Z" fill="#4D4D4D"/>
<path d="M19.1562 11.8235C19.6576 11.5349 19.5693 10.4412 18.9589 9.38068C18.3485 8.32018 17.4472 7.69444 16.9458 7.98305C16.4443 8.27165 16.5327 9.36532 17.143 10.4258C17.7534 11.4863 18.6547 12.1121 19.1562 11.8235Z" fill="#757575"/>
<path d="M18.7069 10.4482C18.9037 10.3346 18.9216 9.99721 18.747 9.69469C18.5723 9.39217 18.2712 9.23904 18.0744 9.35267C17.8776 9.4663 17.8596 9.80365 18.0343 10.1062C18.2089 10.4087 18.5101 10.5618 18.7069 10.4482Z" fill="#212121"/>
<path opacity="0.9" d="M9.68504 9.44618C10.1774 10.8441 9.45683 11.6779 8.52425 12.2116C8.07863 12.4667 7.56113 12.5781 7.11011 12.8243C6.23324 13.3023 5.70136 14.2241 4.93769 14.8656C4.74722 15.0255 4.5298 15.1728 4.28183 15.1998C3.95121 15.2357 3.62777 15.0416 3.43011 14.7739C3.23425 14.5044 2.43105 11.9492 5.36355 9.33477C6.67347 8.1668 9.14597 7.91344 9.68504 9.44618Z" fill="#757575"/>
<path d="M7.52173 6.95756C8.18478 6.97912 9.53962 6.9881 11.2538 7.66193C11.8306 7.88834 12.3176 8.20459 12.8405 8.52803C13.2627 8.78857 13.7425 9.00599 14.2367 8.95928C14.4109 8.9431 14.6032 8.87482 14.6715 8.7131C14.7128 8.61248 14.7092 8.51006 14.6733 8.40943C14.6302 8.29084 14.4828 8.12553 14.2564 7.94045C13.9332 7.72248 13.5945 7.5285 13.243 7.36006C11.3814 6.4724 9.34556 6.38435 7.52173 6.95756Z" fill="url(#paint0_linear_100_1719)"/>
<path d="M18.3514 8.56031C18.3424 8.55133 18.3334 8.54055 18.3244 8.53156C18.3226 8.52977 18.3226 8.52797 18.3208 8.52797C18.2795 8.48664 18.2382 8.44711 18.1969 8.40758C18.1915 8.40219 18.1843 8.3968 18.1789 8.38961C17.7243 7.97813 17.2589 7.80383 16.9462 7.98172C16.4449 8.26922 16.5329 9.36352 17.1439 10.4237C17.2688 10.6404 17.4112 10.8465 17.5697 11.04C17.5518 10.9879 16.8797 8.97 17.2984 8.42914C17.656 7.97274 18.2885 8.50641 18.3514 8.56031Z" fill="url(#paint1_linear_100_1719)"/>
<path d="M15.8411 13.3921C15.4063 13.1064 14.9804 12.7183 14.7163 11.7426C14.6821 11.6186 14.5671 11.0023 14.8995 10.9035C15.187 10.8172 15.4009 11.2898 15.6488 11.7049C15.9184 12.1595 16.355 12.553 16.824 12.81C16.9606 12.8836 17.5949 13.1693 17.178 13.5682C16.9031 13.8288 16.0963 13.5611 15.8411 13.3921Z" fill="#212121"/>
<path d="M18.1213 9.60252C18.1393 9.59533 19.9631 8.76697 19.805 7.56487C19.7008 6.77065 19.3917 6.37533 17.7566 5.98721C16.1573 5.60807 15.3757 4.86596 15.3434 4.83362C15.1834 4.67908 15.178 4.42213 15.3344 4.26041C15.4889 4.10049 15.7441 4.0951 15.9058 4.24963C15.9184 4.26041 16.5832 4.87494 17.9452 5.19838C19.5301 5.57393 20.4231 6.04651 20.61 7.45705C20.8184 9.03471 19.0791 10.0176 18.5813 10.2781C18.2723 10.4417 17.9165 9.69237 18.1213 9.60252Z" fill="#C69461"/>
<path d="M15.9022 4.25146C15.7422 4.09693 15.4853 4.10232 15.3308 4.26224C15.1762 4.42396 15.1798 4.67912 15.3397 4.83545C15.3631 4.85881 15.789 5.26131 16.6425 5.62427L16.8132 5.32599L17.4708 5.06904C16.4269 4.73482 15.9129 4.26045 15.9022 4.25146Z" fill="#F6BC41"/>
<defs>
<linearGradient id="paint0_linear_100_1719" x1="7.56108" y1="6.20862" x2="15.06" y2="8.63638" gradientUnits="userSpaceOnUse">
<stop stop-color="#FFF9C4" stop-opacity="0.1"/>
<stop offset="0.002" stop-color="#FFF9C4" stop-opacity="0.101"/>
<stop offset="0.378" stop-color="#FFFCA6" stop-opacity="0.263"/>
<stop offset="0.701" stop-color="#FFFE94" stop-opacity="0.401"/>
<stop offset="0.93" stop-color="#FFFF8D" stop-opacity="0.5"/>
</linearGradient>
<linearGradient id="paint1_linear_100_1719" x1="18.3332" y1="10.2965" x2="16.3764" y2="7.71489" gradientUnits="userSpaceOnUse">
<stop offset="0.11" stop-color="#FFF9C4" stop-opacity="0"/>
<stop offset="1" stop-color="#FFFF8D"/>
</linearGradient>
</defs>
</svg>
