<?xml version="1.0" encoding="iso-8859-1"?>
<!-- Uploaded to: SVG Repo, www.svgrepo.com, Generator: SVG Repo Mixer Tools -->
<svg height="800px" width="800px" version="1.1" id="Layer_1" xmlns="http://www.w3.org/2000/svg" xmlns:xlink="http://www.w3.org/1999/xlink" 
	 viewBox="0 0 508.832 508.832" xml:space="preserve">
<circle style="fill:#90DFAA;" cx="254.416" cy="254.527" r="217.007"/>
<path style="fill:#324A5E;" d="M289.001,34.808c-3.052-19.666-13.563-36.959-26.109-34.585c-2.034,0.339-3.73,1.356-5.425,2.374
	c-2.713,2.034-6.103,2.034-8.816,0c-1.695-1.356-3.391-2.034-5.425-2.374c-12.546-2.374-23.057,14.58-26.109,34.585H289.001z"/>
<ellipse style="fill:#2B3B4E;" cx="253.399" cy="49.388" rx="61.372" ry="20.344"/>
<path style="fill:#F9B54C;" d="M268.318,89.738h-15.597h-0.678h-11.528c0.339,11.868-8.138,27.465-8.138,27.465
	c0,12.207,9.833,99.687,22.04,99.687s22.04-87.481,22.04-99.687C276.456,117.203,267.979,101.605,268.318,89.738z"/>
<path style="fill:#324A5E;" d="M232.376,117.203c0,0,17.293,20.005,44.079,0l-5.764,71.205l-16.275,31.873
	c0,0-27.465-42.045-26.787-42.723c0.678-0.678,4.747-38.993,4.747-38.993V117.203z"/>
<g>
	<path style="fill:#FFD05B;" d="M180.498,310.474c-0.339,6.442-0.339,23.396,10.85,30.517c1.695,1.017,4.069,0.339,4.747-1.695
		c0.339-1.017,0-2.374-1.017-3.052l-3.391-3.052c-2.713-2.373-3.73-6.103-3.052-9.494c0.339-1.695,1.017-3.391,1.695-5.086
		c0.678-1.695,3.052-1.017,3.052,0.678c-0.339,4.408,0.339,10.172,5.425,9.155c0,0,2.374-8.138-1.695-18.31h-16.615V310.474z"/>
	<path style="fill:#FFD05B;" d="M312.058,310.474c-4.069,10.172-1.695,18.31-1.695,18.31c5.086,1.017,5.764-4.747,5.425-9.155
		c0-1.695,2.374-2.374,3.052-0.678c0.678,1.356,1.356,3.391,1.695,5.086c1.017,3.391-0.339,7.121-3.052,9.494l-3.391,3.052
		c-0.678,0.678-1.017,2.034-1.017,3.052c0.678,2.034,2.713,3.052,4.747,1.695c10.85-7.46,11.189-24.074,10.85-30.517h-16.615
		V310.474z"/>
	<path style="fill:#FFD05B;" d="M263.571,48.71c-8.138,0-18.31,1.695-25.77-2.713c-1.356,0-2.713,0.339-4.408,0.339
		c-1.356,3.052-4.408,5.764-7.799,6.442l3.73,39.332c0.339,3.391,1.695,6.781,4.069,9.494c0,0,10.85,10.85,15.258,11.189h10.85
		c4.408-0.678,15.258-11.189,15.258-11.189c2.373-2.713,3.73-6.103,4.069-9.494l4.069-41.367
		C277.473,47.354,269.674,48.71,263.571,48.71z"/>
	<path style="fill:#FFD05B;" d="M287.306,71.767c-1.356,3.73-4.747,6.103-7.46,5.086c-2.713-1.017-3.391-4.747-2.034-8.816
		c1.356-3.73,4.747-6.103,7.46-5.086C287.984,63.968,288.662,67.698,287.306,71.767z"/>
	<path style="fill:#FFD05B;" d="M221.187,71.767c1.356,3.73,4.747,6.103,7.46,5.086c2.713-1.017,3.391-4.747,2.034-8.816
		c-1.356-3.73-4.747-6.103-7.46-5.086C220.509,63.968,219.83,67.698,221.187,71.767z"/>
</g>
<g>
	<path style="fill:#324A5E;" d="M234.072,46.336c-1.695,3.73-6.781,15.258-4.069,30.517c0,0-6.103-11.528-9.494-17.971
		c-1.695-3.052-2.713-6.103-3.052-9.494c2.374-0.678,4.747-1.356,7.46-1.695C227.968,47.354,231.02,46.676,234.072,46.336z"/>
	<path style="fill:#324A5E;" d="M287.306,49.388c0,4.069-0.678,8.816-2.034,14.919c0,0-3.73,0.339-5.086,8.477
		c0,0-0.678-18.649-5.764-22.379c0,0-28.821,1.695-38.315-4.408c5.086-0.678,10.85-1.017,16.615-1.017
		c11.189,0,21.701,1.017,30.517,3.052C284.593,48.71,285.95,49.049,287.306,49.388z"/>
</g>
<polygon style="fill:#2B3B4E;" points="255.433,365.404 271.37,494.591 297.817,494.591 301.547,365.404 "/>
<g>
	<polygon style="fill:#324A5E;" points="206.268,365.404 209.658,494.591 236.106,494.591 252.042,365.404 	"/>
	<path style="fill:#324A5E;" d="M297.817,494.591H271.37v10.85c0,2.034,1.695,3.391,3.391,3.391h35.603v-1.695
		C310.363,500.355,304.599,494.591,297.817,494.591z"/>
</g>
<g>
	<path style="fill:#2B3B4E;" d="M209.658,494.591h26.448v10.85c0,2.034-1.695,3.391-3.391,3.391h-35.603v-1.695
		C197.113,500.355,202.877,494.591,209.658,494.591z"/>
	<path style="fill:#2B3B4E;" d="M227.629,126.358c0,0-33.568,13.224-38.654,16.615c0,0,30.177,46.114,8.816,227.518
		c0,0,20.005,15.936,71.544,5.086l1.356-113.928l-30.517-70.527L227.629,126.358z"/>
</g>
<path style="fill:#CED5E0;" d="M270.691,261.987c-50.522-56.286-65.102-101.722-65.102-101.722
	c22.04-5.764,23.396-14.241,23.396-14.241c-8.816-18.31-23.057,5.425-23.057,5.425c6.781-25.43,26.448-34.246,26.448-34.246
	s11.528,75.613,30.177,116.98c1.695,3.391,2.713,7.121,3.73,10.85L270.691,261.987z"/>
<g>
	<path style="fill:#324A5E;" d="M188.975,143.311c0,0-22.718,72.562-12.546,171.232l23.396-2.713c0,0-3.73-87.142,5.086-113.25
		C204.911,198.919,205.589,144.328,188.975,143.311z"/>
	<path style="fill:#324A5E;" d="M281.203,126.358c0,0,33.568,13.224,38.654,16.615c0,0-30.177,46.114-8.816,227.518
		c0,0-20.005,15.936-71.544,5.086l-1.356-113.928l30.517-70.527L281.203,126.358z"/>
</g>
<path style="fill:#E6E9EE;" d="M238.14,261.987c50.522-56.286,65.102-101.722,65.102-101.722
	c-22.04-5.764-23.396-13.902-23.396-13.902c8.816-18.31,23.057,5.425,23.057,5.425c-6.781-25.77-26.448-34.585-26.448-34.585
	s-11.528,75.613-30.177,116.98c-1.695,3.391-2.713,7.121-3.73,10.85L238.14,261.987z"/>
<g>
	<path style="fill:#2B3B4E;" d="M319.857,143.311c0,0,22.718,72.562,12.546,171.232l-23.396-2.713c0,0,3.73-87.142-5.086-113.25
		C303.921,198.919,303.242,144.328,319.857,143.311z"/>
	<circle style="fill:#2B3B4E;" cx="249.669" cy="271.481" r="4.069"/>
	<circle style="fill:#2B3B4E;" cx="265.266" cy="271.481" r="4.069"/>
	<circle style="fill:#2B3B4E;" cx="249.669" cy="290.808" r="4.069"/>
	<circle style="fill:#2B3B4E;" cx="265.266" cy="290.808" r="4.069"/>
	<circle style="fill:#2B3B4E;" cx="249.669" cy="310.474" r="4.069"/>
	<circle style="fill:#2B3B4E;" cx="265.266" cy="310.474" r="4.069"/>
	<circle style="fill:#2B3B4E;" cx="249.669" cy="329.801" r="4.069"/>
	<circle style="fill:#2B3B4E;" cx="265.266" cy="329.801" r="4.069"/>
	<path style="fill:#2B3B4E;" d="M254.416,68.037L254.416,68.037h-23.057c1.017,5.425,5.764,9.494,11.528,9.494
		c5.425,0,10.172-3.73,11.528-8.816c1.356,5.086,5.764,8.816,11.528,8.816c5.764,0,10.511-4.069,11.528-9.494H254.416z"/>
</g>
</svg>