<svg width="15" height="15" viewBox="0 0 15 15" fill="none" xmlns="http://www.w3.org/2000/svg">
<path fill-rule="evenodd" clip-rule="evenodd" d="M7.31583 0.395447C3.61833 0.395447 0.924541 2.88382 0.402499 6.50128C0.365666 6.76053 0.481833 6.97799 0.697166 7.01128C0.909666 7.04457 1.08958 6.87811 1.1335 6.6302C1.64562 3.7487 4.16021 1.82628 7.31654 1.82628C10.7562 1.82628 13.1532 4.22328 13.1532 7.66295C13.1532 10.6847 11.0806 13.3048 8.34008 13.8424C8.09217 13.892 7.92712 14.0741 7.96325 14.2859C7.99867 14.5005 8.21612 14.6167 8.47467 14.5798C12.0907 14.067 14.584 11.3654 14.584 7.66295C14.584 3.39949 11.5793 0.395447 7.31654 0.395447H7.31583ZM5.15542 7.61053C5.50817 7.16995 5.9275 6.6897 6.42333 6.20449C8.31458 4.29695 10.4212 4.18078 10.6138 4.38478C10.8235 4.58311 10.6967 6.67341 8.79483 8.58661C8.30962 9.08245 7.83504 9.50178 7.38879 9.85453V11.2669C7.38879 11.7486 7.38879 11.7748 7.05729 12.022C7.02187 12.0482 6.96521 12.0929 6.88871 12.1517C6.56358 12.4038 5.90271 12.9167 5.205 13.3452C4.99533 13.4727 4.81896 13.3672 4.95708 13.1802C5.26857 12.7523 5.52933 12.2897 5.73412 11.8017C5.88854 11.4377 5.88854 11.1069 5.73412 10.82C5.18304 10.9971 4.73042 10.9411 4.39467 10.616C4.05254 10.2852 4.00862 9.82195 4.185 9.2652C4.03072 9.18889 3.86093 9.14919 3.68881 9.14919C3.5167 9.14919 3.3469 9.18889 3.19262 9.2652C2.77329 9.41961 2.32137 9.68382 1.8135 10.0373C1.61517 10.1804 1.51033 10.004 1.64846 9.79432C2.09471 9.05341 2.64437 8.36066 2.88308 8.06032L2.97162 7.94699C3.21954 7.6162 3.24787 7.6162 3.79896 7.6162H5.13912L5.15542 7.61053ZM3.4625 10.5884C3.49225 10.6209 3.403 10.6925 3.25708 10.8108C2.85687 11.1345 2.02883 11.8046 2.02883 12.9592C3.18908 12.9592 3.86058 12.1417 4.18571 11.7458C4.30542 11.5999 4.37837 11.5113 4.41096 11.5425C4.52146 11.6523 4.15171 12.5512 3.51775 13.1802C3.15733 13.5354 2.72708 13.8119 2.25424 13.9923C1.7814 14.1726 1.27627 14.2528 0.770833 14.2278C0.770833 12.9599 1.1845 12.1099 1.81917 11.4816C2.45242 10.8476 3.34633 10.4779 3.46179 10.5997V10.5884H3.4625Z" fill="#FC9502"/>
</svg>
