<svg width="327" height="132" viewBox="0 0 327 132" fill="none" xmlns="http://www.w3.org/2000/svg">
<path d="M13.5 119.5L49 67.5H106.5L151 46.5L201.5 51L253 18.5L307 7.5" stroke="#595C94" stroke-width="3"/>
<circle cx="49" cy="68" r="5" fill="#C88C44"/>
<circle cx="107" cy="68" r="5" fill="#C88C44"/>
<circle cx="152" cy="47" r="5" fill="#C88C44"/>
<circle cx="202" cy="52" r="5" fill="#C88C44"/>
<circle cx="255" cy="17" r="5" fill="#C88C44"/>
<circle cx="307" cy="8" r="7" fill="#C88C44" stroke="#CB3535" stroke-width="2"/>
<path d="M6.86 129V125.241L5.978 125.5L5.866 125.227L7.007 124.632H7.35V129H6.86ZM9.611 129.294L9.198 129.091L11.389 124.345L11.809 124.562L9.611 129.294ZM13.622 129.077C13.4167 129.077 13.2277 129.037 13.055 128.958C12.8823 128.874 12.7283 128.753 12.593 128.594L12.873 128.244L12.922 128.188L12.957 128.216C12.9617 128.258 12.971 128.295 12.985 128.328C13.0037 128.361 13.0433 128.403 13.104 128.454C13.1833 128.515 13.2627 128.561 13.342 128.594C13.426 128.627 13.5193 128.643 13.622 128.643C13.7807 128.643 13.909 128.608 14.007 128.538C14.105 128.468 14.1773 128.354 14.224 128.195C14.2707 128.032 14.294 127.815 14.294 127.544V125.052H13.454V124.639H15.449V125.052H14.777V127.537C14.7863 127.817 14.7607 128.055 14.7 128.251C14.6393 128.447 14.553 128.608 14.441 128.734C14.329 128.855 14.203 128.944 14.063 129C13.923 129.051 13.776 129.077 13.622 129.077ZM17.227 129.077C16.863 129.077 16.583 128.995 16.387 128.832C16.191 128.664 16.093 128.452 16.093 128.195C16.093 128.022 16.135 127.868 16.219 127.733C16.303 127.593 16.4173 127.476 16.562 127.383C16.7113 127.285 16.884 127.21 17.08 127.159C17.276 127.108 17.4837 127.082 17.703 127.082C17.7823 127.082 17.8617 127.084 17.941 127.089C18.025 127.089 18.1113 127.094 18.2 127.103C18.2933 127.108 18.389 127.117 18.487 127.131L18.501 127.516C18.417 127.502 18.3307 127.493 18.242 127.488C18.158 127.479 18.074 127.472 17.99 127.467C17.906 127.462 17.8243 127.46 17.745 127.46C17.577 127.46 17.423 127.474 17.283 127.502C17.143 127.53 17.0217 127.572 16.919 127.628C16.8163 127.684 16.737 127.756 16.681 127.845C16.625 127.934 16.597 128.041 16.597 128.167C16.597 128.265 16.6133 128.349 16.646 128.419C16.6833 128.484 16.7323 128.538 16.793 128.58C16.8537 128.617 16.9237 128.645 17.003 128.664C17.087 128.683 17.178 128.692 17.276 128.692C17.458 128.692 17.619 128.664 17.759 128.608C17.9037 128.547 18.025 128.461 18.123 128.349C18.2257 128.237 18.3027 128.099 18.354 127.936C18.4053 127.773 18.431 127.586 18.431 127.376C18.431 127.059 18.3937 126.811 18.319 126.634C18.2443 126.457 18.1323 126.331 17.983 126.256C17.8383 126.181 17.6517 126.144 17.423 126.144C17.269 126.144 17.1173 126.174 16.968 126.235C16.8187 126.291 16.6833 126.38 16.562 126.501L16.317 126.179C16.4663 126.03 16.639 125.918 16.835 125.843C17.031 125.768 17.2387 125.731 17.458 125.731C17.668 125.731 17.8593 125.757 18.032 125.808C18.2047 125.859 18.3517 125.946 18.473 126.067C18.599 126.184 18.6947 126.342 18.76 126.543C18.83 126.744 18.865 126.996 18.865 127.299V129H18.319V128.51C18.2583 128.627 18.1837 128.722 18.095 128.797C18.011 128.872 17.92 128.93 17.822 128.972C17.724 129.009 17.6237 129.035 17.521 129.049C17.4183 129.068 17.3203 129.077 17.227 129.077ZM19.754 129V125.801H20.244V126.368C20.328 126.237 20.426 126.125 20.538 126.032C20.65 125.934 20.7737 125.859 20.909 125.808C21.0443 125.752 21.1843 125.724 21.329 125.724C21.5063 125.724 21.665 125.768 21.805 125.857C21.945 125.946 22.057 126.088 22.141 126.284C22.225 126.48 22.267 126.739 22.267 127.061V129H21.777V127.075C21.777 126.851 21.7513 126.674 21.7 126.543C21.6487 126.408 21.5787 126.312 21.49 126.256C21.4013 126.195 21.301 126.165 21.189 126.165C21.0817 126.165 20.972 126.188 20.86 126.235C20.7527 126.282 20.6523 126.349 20.559 126.438C20.4657 126.522 20.3887 126.625 20.328 126.746C20.272 126.867 20.244 127.005 20.244 127.159V129H19.754Z" fill="#C4C2CF"/>
<path d="M143.11 128V124.241L142.228 124.5L142.116 124.227L143.257 123.632H143.6V128H143.11ZM147.226 128V126.929H145.336V126.572L147.331 123.632H147.744V126.523H148.304V126.936H147.744V128H147.226ZM145.903 126.516H147.226V124.514L145.903 126.516ZM149.361 128.294L148.948 128.091L151.139 123.345L151.559 123.562L149.361 128.294ZM152.546 128V123.632H155.059V124.059H153.036V125.431H154.667V125.858H153.036V128H152.546ZM157.404 128.07C157.171 128.07 156.958 128.035 156.767 127.965C156.576 127.89 156.41 127.783 156.27 127.643C156.135 127.503 156.03 127.33 155.955 127.125C155.88 126.915 155.843 126.677 155.843 126.411C155.843 126.14 155.88 125.9 155.955 125.69C156.034 125.48 156.139 125.305 156.27 125.165C156.405 125.02 156.562 124.911 156.739 124.836C156.921 124.761 157.112 124.724 157.313 124.724C157.495 124.724 157.665 124.754 157.824 124.815C157.983 124.876 158.12 124.969 158.237 125.095C158.354 125.216 158.445 125.373 158.51 125.564C158.58 125.755 158.615 125.982 158.615 126.243C158.615 126.28 158.613 126.32 158.608 126.362C158.608 126.399 158.606 126.437 158.601 126.474H156.326C156.335 126.679 156.37 126.859 156.431 127.013C156.492 127.162 156.571 127.286 156.669 127.384C156.767 127.477 156.879 127.547 157.005 127.594C157.136 127.641 157.273 127.664 157.418 127.664C157.53 127.664 157.635 127.652 157.733 127.629C157.831 127.601 157.922 127.561 158.006 127.51C158.095 127.454 158.174 127.386 158.244 127.307L158.524 127.58C158.435 127.687 158.333 127.778 158.216 127.853C158.104 127.928 157.98 127.981 157.845 128.014C157.71 128.051 157.563 128.07 157.404 128.07ZM156.347 126.082H158.104C158.104 125.933 158.083 125.8 158.041 125.683C158.004 125.562 157.948 125.459 157.873 125.375C157.803 125.286 157.717 125.221 157.614 125.179C157.516 125.132 157.404 125.109 157.278 125.109C157.166 125.109 157.059 125.128 156.956 125.165C156.858 125.202 156.767 125.263 156.683 125.347C156.599 125.426 156.527 125.527 156.466 125.648C156.41 125.769 156.37 125.914 156.347 126.082ZM160.862 128.077C160.731 128.077 160.608 128.056 160.491 128.014C160.374 127.977 160.267 127.921 160.169 127.846C160.076 127.771 159.992 127.683 159.917 127.58L159.742 128H159.42V123.345H159.924H159.994V123.394C159.966 123.422 159.947 123.452 159.938 123.485C159.933 123.518 159.931 123.574 159.931 123.653V125.291C159.982 125.207 160.043 125.13 160.113 125.06C160.183 124.99 160.26 124.929 160.344 124.878C160.428 124.827 160.517 124.789 160.61 124.766C160.703 124.738 160.794 124.724 160.883 124.724C161.079 124.724 161.256 124.759 161.415 124.829C161.578 124.894 161.718 124.997 161.835 125.137C161.952 125.272 162.04 125.443 162.101 125.648C162.166 125.853 162.199 126.094 162.199 126.369C162.199 126.654 162.162 126.903 162.087 127.118C162.012 127.333 161.91 127.512 161.779 127.657C161.653 127.797 161.511 127.902 161.352 127.972C161.193 128.042 161.03 128.077 160.862 128.077ZM160.799 127.629C160.911 127.629 161.018 127.608 161.121 127.566C161.228 127.524 161.324 127.456 161.408 127.363C161.492 127.265 161.557 127.137 161.604 126.978C161.655 126.819 161.681 126.626 161.681 126.397C161.681 126.187 161.66 126.005 161.618 125.851C161.576 125.692 161.515 125.562 161.436 125.459C161.361 125.356 161.27 125.282 161.163 125.235C161.056 125.184 160.939 125.158 160.813 125.158C160.64 125.158 160.486 125.212 160.351 125.319C160.22 125.422 160.118 125.569 160.043 125.76C159.968 125.947 159.931 126.164 159.931 126.411C159.931 126.593 159.947 126.759 159.98 126.908C160.013 127.057 160.062 127.186 160.127 127.293C160.197 127.4 160.286 127.484 160.393 127.545C160.505 127.601 160.64 127.629 160.799 127.629Z" fill="#C4C2CF"/>
<path d="M195.18 127.077C194.951 127.077 194.732 127.035 194.522 126.951C194.312 126.867 194.132 126.743 193.983 126.58L194.305 126.195L194.354 126.139L194.389 126.174C194.394 126.211 194.403 126.249 194.417 126.286C194.431 126.319 194.464 126.363 194.515 126.419C194.594 126.489 194.685 126.547 194.788 126.594C194.891 126.636 195.014 126.657 195.159 126.657C195.346 126.657 195.5 126.62 195.621 126.545C195.742 126.47 195.833 126.368 195.894 126.237C195.955 126.102 195.985 125.95 195.985 125.782C195.985 125.614 195.955 125.472 195.894 125.355C195.838 125.238 195.756 125.147 195.649 125.082C195.542 125.012 195.413 124.965 195.264 124.942C195.115 124.914 194.947 124.909 194.76 124.928V124.536C194.984 124.536 195.166 124.513 195.306 124.466C195.451 124.419 195.56 124.356 195.635 124.277C195.714 124.198 195.768 124.107 195.796 124.004C195.824 123.897 195.838 123.787 195.838 123.675C195.838 123.577 195.822 123.488 195.789 123.409C195.761 123.33 195.719 123.262 195.663 123.206C195.612 123.15 195.546 123.108 195.467 123.08C195.392 123.047 195.308 123.031 195.215 123.031C195.122 123.031 195.028 123.043 194.935 123.066C194.846 123.085 194.758 123.117 194.669 123.164C194.585 123.211 194.501 123.274 194.417 123.353L194.123 123.059C194.282 122.896 194.454 122.781 194.641 122.716C194.832 122.646 195.021 122.611 195.208 122.611C195.446 122.611 195.649 122.658 195.817 122.751C195.985 122.84 196.113 122.966 196.202 123.129C196.295 123.292 196.342 123.481 196.342 123.696C196.342 123.845 196.316 123.988 196.265 124.123C196.218 124.254 196.144 124.368 196.041 124.466C195.938 124.564 195.81 124.639 195.656 124.69C195.819 124.741 195.964 124.818 196.09 124.921C196.216 125.019 196.314 125.14 196.384 125.285C196.454 125.43 196.489 125.602 196.489 125.803C196.489 126.032 196.438 126.244 196.335 126.44C196.237 126.631 196.09 126.785 195.894 126.902C195.703 127.019 195.465 127.077 195.18 127.077ZM197.749 125.922L199.618 123.521L199.779 123.85L197.91 126.223L197.749 125.922ZM198.75 127.077C198.461 127.077 198.216 126.991 198.015 126.818C197.814 126.645 197.66 126.393 197.553 126.062C197.45 125.726 197.399 125.32 197.399 124.844C197.399 124.382 197.45 123.985 197.553 123.654C197.66 123.318 197.814 123.061 198.015 122.884C198.216 122.702 198.461 122.611 198.75 122.611C199.039 122.611 199.284 122.702 199.485 122.884C199.686 123.061 199.837 123.318 199.94 123.654C200.047 123.985 200.101 124.382 200.101 124.844C200.101 125.32 200.047 125.726 199.94 126.062C199.837 126.393 199.686 126.645 199.485 126.818C199.284 126.991 199.039 127.077 198.75 127.077ZM198.75 126.65C198.927 126.65 199.079 126.58 199.205 126.44C199.331 126.3 199.427 126.097 199.492 125.831C199.562 125.56 199.597 125.231 199.597 124.844C199.597 124.475 199.562 124.158 199.492 123.892C199.427 123.621 199.331 123.411 199.205 123.262C199.079 123.113 198.927 123.038 198.75 123.038C198.573 123.038 198.421 123.113 198.295 123.262C198.169 123.411 198.071 123.621 198.001 123.892C197.936 124.158 197.903 124.475 197.903 124.844C197.903 125.231 197.936 125.56 198.001 125.831C198.071 126.097 198.169 126.3 198.295 126.44C198.421 126.58 198.573 126.65 198.75 126.65ZM201.361 127.294L200.948 127.091L203.139 122.345L203.559 122.562L201.361 127.294ZM204.546 127V122.632H207.059V123.059H205.036V124.431H206.667V124.858H205.036V127H204.546ZM209.404 127.07C209.171 127.07 208.958 127.035 208.767 126.965C208.576 126.89 208.41 126.783 208.27 126.643C208.135 126.503 208.03 126.33 207.955 126.125C207.88 125.915 207.843 125.677 207.843 125.411C207.843 125.14 207.88 124.9 207.955 124.69C208.034 124.48 208.139 124.305 208.27 124.165C208.405 124.02 208.562 123.911 208.739 123.836C208.921 123.761 209.112 123.724 209.313 123.724C209.495 123.724 209.665 123.754 209.824 123.815C209.983 123.876 210.12 123.969 210.237 124.095C210.354 124.216 210.445 124.373 210.51 124.564C210.58 124.755 210.615 124.982 210.615 125.243C210.615 125.28 210.613 125.32 210.608 125.362C210.608 125.399 210.606 125.437 210.601 125.474H208.326C208.335 125.679 208.37 125.859 208.431 126.013C208.492 126.162 208.571 126.286 208.669 126.384C208.767 126.477 208.879 126.547 209.005 126.594C209.136 126.641 209.273 126.664 209.418 126.664C209.53 126.664 209.635 126.652 209.733 126.629C209.831 126.601 209.922 126.561 210.006 126.51C210.095 126.454 210.174 126.386 210.244 126.307L210.524 126.58C210.435 126.687 210.333 126.778 210.216 126.853C210.104 126.928 209.98 126.981 209.845 127.014C209.71 127.051 209.563 127.07 209.404 127.07ZM208.347 125.082H210.104C210.104 124.933 210.083 124.8 210.041 124.683C210.004 124.562 209.948 124.459 209.873 124.375C209.803 124.286 209.717 124.221 209.614 124.179C209.516 124.132 209.404 124.109 209.278 124.109C209.166 124.109 209.059 124.128 208.956 124.165C208.858 124.202 208.767 124.263 208.683 124.347C208.599 124.426 208.527 124.527 208.466 124.648C208.41 124.769 208.37 124.914 208.347 125.082ZM212.862 127.077C212.731 127.077 212.608 127.056 212.491 127.014C212.374 126.977 212.267 126.921 212.169 126.846C212.076 126.771 211.992 126.683 211.917 126.58L211.742 127H211.42V122.345H211.924H211.994V122.394C211.966 122.422 211.947 122.452 211.938 122.485C211.933 122.518 211.931 122.574 211.931 122.653V124.291C211.982 124.207 212.043 124.13 212.113 124.06C212.183 123.99 212.26 123.929 212.344 123.878C212.428 123.827 212.517 123.789 212.61 123.766C212.703 123.738 212.794 123.724 212.883 123.724C213.079 123.724 213.256 123.759 213.415 123.829C213.578 123.894 213.718 123.997 213.835 124.137C213.952 124.272 214.04 124.443 214.101 124.648C214.166 124.853 214.199 125.094 214.199 125.369C214.199 125.654 214.162 125.903 214.087 126.118C214.012 126.333 213.91 126.512 213.779 126.657C213.653 126.797 213.511 126.902 213.352 126.972C213.193 127.042 213.03 127.077 212.862 127.077ZM212.799 126.629C212.911 126.629 213.018 126.608 213.121 126.566C213.228 126.524 213.324 126.456 213.408 126.363C213.492 126.265 213.557 126.137 213.604 125.978C213.655 125.819 213.681 125.626 213.681 125.397C213.681 125.187 213.66 125.005 213.618 124.851C213.576 124.692 213.515 124.562 213.436 124.459C213.361 124.356 213.27 124.282 213.163 124.235C213.056 124.184 212.939 124.158 212.813 124.158C212.64 124.158 212.486 124.212 212.351 124.319C212.22 124.422 212.118 124.569 212.043 124.76C211.968 124.947 211.931 125.164 211.931 125.411C211.931 125.593 211.947 125.759 211.98 125.908C212.013 126.057 212.062 126.186 212.127 126.293C212.197 126.4 212.286 126.484 212.393 126.545C212.505 126.601 212.64 126.629 212.799 126.629Z" fill="#C4C2CF"/>
<path d="M301.11 126V122.241L300.228 122.5L300.116 122.227L301.257 121.632H301.6V126H301.11ZM303.749 124.922L305.618 122.521L305.779 122.85L303.91 125.223L303.749 124.922ZM304.75 126.077C304.461 126.077 304.216 125.991 304.015 125.818C303.814 125.645 303.66 125.393 303.553 125.062C303.45 124.726 303.399 124.32 303.399 123.844C303.399 123.382 303.45 122.985 303.553 122.654C303.66 122.318 303.814 122.061 304.015 121.884C304.216 121.702 304.461 121.611 304.75 121.611C305.039 121.611 305.284 121.702 305.485 121.884C305.686 122.061 305.837 122.318 305.94 122.654C306.047 122.985 306.101 123.382 306.101 123.844C306.101 124.32 306.047 124.726 305.94 125.062C305.837 125.393 305.686 125.645 305.485 125.818C305.284 125.991 305.039 126.077 304.75 126.077ZM304.75 125.65C304.927 125.65 305.079 125.58 305.205 125.44C305.331 125.3 305.427 125.097 305.492 124.831C305.562 124.56 305.597 124.231 305.597 123.844C305.597 123.475 305.562 123.158 305.492 122.892C305.427 122.621 305.331 122.411 305.205 122.262C305.079 122.113 304.927 122.038 304.75 122.038C304.573 122.038 304.421 122.113 304.295 122.262C304.169 122.411 304.071 122.621 304.001 122.892C303.936 123.158 303.903 123.475 303.903 123.844C303.903 124.231 303.936 124.56 304.001 124.831C304.071 125.097 304.169 125.3 304.295 125.44C304.421 125.58 304.573 125.65 304.75 125.65ZM307.361 126.294L306.948 126.091L309.139 121.345L309.559 121.562L307.361 126.294ZM310.287 126V121.639H310.672L311.75 123.774L312.849 121.632H313.22V126H312.758V122.71L311.813 124.467H311.624L310.742 122.731V126H310.287ZM314.977 126.077C314.613 126.077 314.333 125.995 314.137 125.832C313.941 125.664 313.843 125.452 313.843 125.195C313.843 125.022 313.885 124.868 313.969 124.733C314.053 124.593 314.167 124.476 314.312 124.383C314.461 124.285 314.634 124.21 314.83 124.159C315.026 124.108 315.234 124.082 315.453 124.082C315.532 124.082 315.612 124.084 315.691 124.089C315.775 124.089 315.861 124.094 315.95 124.103C316.043 124.108 316.139 124.117 316.237 124.131L316.251 124.516C316.167 124.502 316.081 124.493 315.992 124.488C315.908 124.479 315.824 124.472 315.74 124.467C315.656 124.462 315.574 124.46 315.495 124.46C315.327 124.46 315.173 124.474 315.033 124.502C314.893 124.53 314.772 124.572 314.669 124.628C314.566 124.684 314.487 124.756 314.431 124.845C314.375 124.934 314.347 125.041 314.347 125.167C314.347 125.265 314.363 125.349 314.396 125.419C314.433 125.484 314.482 125.538 314.543 125.58C314.604 125.617 314.674 125.645 314.753 125.664C314.837 125.683 314.928 125.692 315.026 125.692C315.208 125.692 315.369 125.664 315.509 125.608C315.654 125.547 315.775 125.461 315.873 125.349C315.976 125.237 316.053 125.099 316.104 124.936C316.155 124.773 316.181 124.586 316.181 124.376C316.181 124.059 316.144 123.811 316.069 123.634C315.994 123.457 315.882 123.331 315.733 123.256C315.588 123.181 315.402 123.144 315.173 123.144C315.019 123.144 314.867 123.174 314.718 123.235C314.569 123.291 314.433 123.38 314.312 123.501L314.067 123.179C314.216 123.03 314.389 122.918 314.585 122.843C314.781 122.768 314.989 122.731 315.208 122.731C315.418 122.731 315.609 122.757 315.782 122.808C315.955 122.859 316.102 122.946 316.223 123.067C316.349 123.184 316.445 123.342 316.51 123.543C316.58 123.744 316.615 123.996 316.615 124.299V126H316.069V125.51C316.008 125.627 315.934 125.722 315.845 125.797C315.761 125.872 315.67 125.93 315.572 125.972C315.474 126.009 315.374 126.035 315.271 126.049C315.168 126.068 315.07 126.077 314.977 126.077ZM317.833 122.801H318.358L318.337 123.732L318.274 123.627C318.302 123.482 318.351 123.354 318.421 123.242C318.491 123.13 318.575 123.037 318.673 122.962C318.771 122.883 318.878 122.824 318.995 122.787C319.112 122.745 319.233 122.724 319.359 122.724C319.527 122.724 319.681 122.754 319.821 122.815C319.966 122.871 320.094 122.957 320.206 123.074L319.982 123.466L319.954 123.529L319.905 123.501C319.896 123.464 319.882 123.429 319.863 123.396C319.844 123.363 319.805 123.324 319.744 123.277C319.669 123.23 319.599 123.2 319.534 123.186C319.473 123.167 319.403 123.158 319.324 123.158C319.207 123.158 319.091 123.181 318.974 123.228C318.857 123.27 318.75 123.338 318.652 123.431C318.559 123.524 318.484 123.643 318.428 123.788C318.372 123.933 318.344 124.105 318.344 124.306V126.007H317.833V122.801Z" fill="#C4C2CF"/>
<path d="M246.249 124.922L248.118 122.521L248.279 122.85L246.41 125.223L246.249 124.922ZM247.25 126.077C246.961 126.077 246.716 125.991 246.515 125.818C246.314 125.645 246.16 125.393 246.053 125.062C245.95 124.726 245.899 124.32 245.899 123.844C245.899 123.382 245.95 122.985 246.053 122.654C246.16 122.318 246.314 122.061 246.515 121.884C246.716 121.702 246.961 121.611 247.25 121.611C247.539 121.611 247.784 121.702 247.985 121.884C248.186 122.061 248.337 122.318 248.44 122.654C248.547 122.985 248.601 123.382 248.601 123.844C248.601 124.32 248.547 124.726 248.44 125.062C248.337 125.393 248.186 125.645 247.985 125.818C247.784 125.991 247.539 126.077 247.25 126.077ZM247.25 125.65C247.427 125.65 247.579 125.58 247.705 125.44C247.831 125.3 247.927 125.097 247.992 124.831C248.062 124.56 248.097 124.231 248.097 123.844C248.097 123.475 248.062 123.158 247.992 122.892C247.927 122.621 247.831 122.411 247.705 122.262C247.579 122.113 247.427 122.038 247.25 122.038C247.073 122.038 246.921 122.113 246.795 122.262C246.669 122.411 246.571 122.621 246.501 122.892C246.436 123.158 246.403 123.475 246.403 123.844C246.403 124.231 246.436 124.56 246.501 124.831C246.571 125.097 246.669 125.3 246.795 125.44C246.921 125.58 247.073 125.65 247.25 125.65ZM250.68 126.077C250.451 126.077 250.232 126.035 250.022 125.951C249.812 125.867 249.632 125.743 249.483 125.58L249.805 125.195L249.854 125.139L249.889 125.174C249.894 125.211 249.903 125.249 249.917 125.286C249.931 125.319 249.964 125.363 250.015 125.419C250.094 125.489 250.185 125.547 250.288 125.594C250.391 125.636 250.514 125.657 250.659 125.657C250.846 125.657 251 125.62 251.121 125.545C251.242 125.47 251.333 125.368 251.394 125.237C251.455 125.102 251.485 124.95 251.485 124.782C251.485 124.614 251.455 124.472 251.394 124.355C251.338 124.238 251.256 124.147 251.149 124.082C251.042 124.012 250.913 123.965 250.764 123.942C250.615 123.914 250.447 123.909 250.26 123.928V123.536C250.484 123.536 250.666 123.513 250.806 123.466C250.951 123.419 251.06 123.356 251.135 123.277C251.214 123.198 251.268 123.107 251.296 123.004C251.324 122.897 251.338 122.787 251.338 122.675C251.338 122.577 251.322 122.488 251.289 122.409C251.261 122.33 251.219 122.262 251.163 122.206C251.112 122.15 251.046 122.108 250.967 122.08C250.892 122.047 250.808 122.031 250.715 122.031C250.622 122.031 250.528 122.043 250.435 122.066C250.346 122.085 250.258 122.117 250.169 122.164C250.085 122.211 250.001 122.274 249.917 122.353L249.623 122.059C249.782 121.896 249.954 121.781 250.141 121.716C250.332 121.646 250.521 121.611 250.708 121.611C250.946 121.611 251.149 121.658 251.317 121.751C251.485 121.84 251.613 121.966 251.702 122.129C251.795 122.292 251.842 122.481 251.842 122.696C251.842 122.845 251.816 122.988 251.765 123.123C251.718 123.254 251.644 123.368 251.541 123.466C251.438 123.564 251.31 123.639 251.156 123.69C251.319 123.741 251.464 123.818 251.59 123.921C251.716 124.019 251.814 124.14 251.884 124.285C251.954 124.43 251.989 124.602 251.989 124.803C251.989 125.032 251.938 125.244 251.835 125.44C251.737 125.631 251.59 125.785 251.394 125.902C251.203 126.019 250.965 126.077 250.68 126.077ZM253.361 126.294L252.948 126.091L255.139 121.345L255.559 121.562L253.361 126.294ZM256.287 126V121.639H256.672L257.75 123.774L258.849 121.632H259.22V126H258.758V122.71L257.813 124.467H257.624L256.742 122.731V126H256.287ZM260.977 126.077C260.613 126.077 260.333 125.995 260.137 125.832C259.941 125.664 259.843 125.452 259.843 125.195C259.843 125.022 259.885 124.868 259.969 124.733C260.053 124.593 260.167 124.476 260.312 124.383C260.461 124.285 260.634 124.21 260.83 124.159C261.026 124.108 261.234 124.082 261.453 124.082C261.532 124.082 261.612 124.084 261.691 124.089C261.775 124.089 261.861 124.094 261.95 124.103C262.043 124.108 262.139 124.117 262.237 124.131L262.251 124.516C262.167 124.502 262.081 124.493 261.992 124.488C261.908 124.479 261.824 124.472 261.74 124.467C261.656 124.462 261.574 124.46 261.495 124.46C261.327 124.46 261.173 124.474 261.033 124.502C260.893 124.53 260.772 124.572 260.669 124.628C260.566 124.684 260.487 124.756 260.431 124.845C260.375 124.934 260.347 125.041 260.347 125.167C260.347 125.265 260.363 125.349 260.396 125.419C260.433 125.484 260.482 125.538 260.543 125.58C260.604 125.617 260.674 125.645 260.753 125.664C260.837 125.683 260.928 125.692 261.026 125.692C261.208 125.692 261.369 125.664 261.509 125.608C261.654 125.547 261.775 125.461 261.873 125.349C261.976 125.237 262.053 125.099 262.104 124.936C262.155 124.773 262.181 124.586 262.181 124.376C262.181 124.059 262.144 123.811 262.069 123.634C261.994 123.457 261.882 123.331 261.733 123.256C261.588 123.181 261.402 123.144 261.173 123.144C261.019 123.144 260.867 123.174 260.718 123.235C260.569 123.291 260.433 123.38 260.312 123.501L260.067 123.179C260.216 123.03 260.389 122.918 260.585 122.843C260.781 122.768 260.989 122.731 261.208 122.731C261.418 122.731 261.609 122.757 261.782 122.808C261.955 122.859 262.102 122.946 262.223 123.067C262.349 123.184 262.445 123.342 262.51 123.543C262.58 123.744 262.615 123.996 262.615 124.299V126H262.069V125.51C262.008 125.627 261.934 125.722 261.845 125.797C261.761 125.872 261.67 125.93 261.572 125.972C261.474 126.009 261.374 126.035 261.271 126.049C261.168 126.068 261.07 126.077 260.977 126.077ZM263.833 122.801H264.358L264.337 123.732L264.274 123.627C264.302 123.482 264.351 123.354 264.421 123.242C264.491 123.13 264.575 123.037 264.673 122.962C264.771 122.883 264.878 122.824 264.995 122.787C265.112 122.745 265.233 122.724 265.359 122.724C265.527 122.724 265.681 122.754 265.821 122.815C265.966 122.871 266.094 122.957 266.206 123.074L265.982 123.466L265.954 123.529L265.905 123.501C265.896 123.464 265.882 123.429 265.863 123.396C265.844 123.363 265.805 123.324 265.744 123.277C265.669 123.23 265.599 123.2 265.534 123.186C265.473 123.167 265.403 123.158 265.324 123.158C265.207 123.158 265.091 123.181 264.974 123.228C264.857 123.27 264.75 123.338 264.652 123.431C264.559 123.524 264.484 123.643 264.428 123.788C264.372 123.933 264.344 124.105 264.344 124.306V126.007H263.833V122.801Z" fill="#C4C2CF"/>
<path d="M103.993 128.077C103.727 128.077 103.48 128.019 103.251 127.902C103.027 127.785 102.843 127.62 102.698 127.405L103.09 127.111L103.146 127.069L103.174 127.104C103.169 127.141 103.174 127.176 103.188 127.209C103.207 127.242 103.239 127.288 103.286 127.349C103.379 127.452 103.482 127.529 103.594 127.58C103.711 127.627 103.853 127.65 104.021 127.65C104.133 127.65 104.24 127.627 104.343 127.58C104.446 127.529 104.534 127.459 104.609 127.37C104.688 127.281 104.751 127.172 104.798 127.041C104.845 126.91 104.868 126.766 104.868 126.607C104.868 126.444 104.845 126.299 104.798 126.173C104.751 126.042 104.686 125.933 104.602 125.844C104.523 125.755 104.429 125.688 104.322 125.641C104.215 125.594 104.098 125.571 103.972 125.571C103.874 125.571 103.774 125.587 103.671 125.62C103.573 125.653 103.48 125.699 103.391 125.76C103.307 125.821 103.228 125.895 103.153 125.984L102.845 125.858L102.992 123.639H105.204V124.08H103.405L103.335 125.333C103.414 125.296 103.491 125.265 103.566 125.242C103.645 125.214 103.725 125.195 103.804 125.186C103.888 125.172 103.97 125.165 104.049 125.165C104.24 125.165 104.415 125.2 104.574 125.27C104.733 125.335 104.87 125.433 104.987 125.564C105.108 125.69 105.202 125.844 105.267 126.026C105.332 126.203 105.365 126.404 105.365 126.628C105.365 126.927 105.304 127.186 105.183 127.405C105.062 127.62 104.898 127.785 104.693 127.902C104.488 128.019 104.254 128.077 103.993 128.077ZM106.611 128.294L106.198 128.091L108.389 123.345L108.809 123.562L106.611 128.294ZM109.796 128V123.632H112.309V124.059H110.286V125.431H111.917V125.858H110.286V128H109.796ZM114.654 128.07C114.421 128.07 114.208 128.035 114.017 127.965C113.826 127.89 113.66 127.783 113.52 127.643C113.385 127.503 113.28 127.33 113.205 127.125C113.13 126.915 113.093 126.677 113.093 126.411C113.093 126.14 113.13 125.9 113.205 125.69C113.284 125.48 113.389 125.305 113.52 125.165C113.655 125.02 113.812 124.911 113.989 124.836C114.171 124.761 114.362 124.724 114.563 124.724C114.745 124.724 114.915 124.754 115.074 124.815C115.233 124.876 115.37 124.969 115.487 125.095C115.604 125.216 115.695 125.373 115.76 125.564C115.83 125.755 115.865 125.982 115.865 126.243C115.865 126.28 115.863 126.32 115.858 126.362C115.858 126.399 115.856 126.437 115.851 126.474H113.576C113.585 126.679 113.62 126.859 113.681 127.013C113.742 127.162 113.821 127.286 113.919 127.384C114.017 127.477 114.129 127.547 114.255 127.594C114.386 127.641 114.523 127.664 114.668 127.664C114.78 127.664 114.885 127.652 114.983 127.629C115.081 127.601 115.172 127.561 115.256 127.51C115.345 127.454 115.424 127.386 115.494 127.307L115.774 127.58C115.685 127.687 115.583 127.778 115.466 127.853C115.354 127.928 115.23 127.981 115.095 128.014C114.96 128.051 114.813 128.07 114.654 128.07ZM113.597 126.082H115.354C115.354 125.933 115.333 125.8 115.291 125.683C115.254 125.562 115.198 125.459 115.123 125.375C115.053 125.286 114.967 125.221 114.864 125.179C114.766 125.132 114.654 125.109 114.528 125.109C114.416 125.109 114.309 125.128 114.206 125.165C114.108 125.202 114.017 125.263 113.933 125.347C113.849 125.426 113.777 125.527 113.716 125.648C113.66 125.769 113.62 125.914 113.597 126.082ZM118.112 128.077C117.981 128.077 117.858 128.056 117.741 128.014C117.624 127.977 117.517 127.921 117.419 127.846C117.326 127.771 117.242 127.683 117.167 127.58L116.992 128H116.67V123.345H117.174H117.244V123.394C117.216 123.422 117.197 123.452 117.188 123.485C117.183 123.518 117.181 123.574 117.181 123.653V125.291C117.232 125.207 117.293 125.13 117.363 125.06C117.433 124.99 117.51 124.929 117.594 124.878C117.678 124.827 117.767 124.789 117.86 124.766C117.953 124.738 118.044 124.724 118.133 124.724C118.329 124.724 118.506 124.759 118.665 124.829C118.828 124.894 118.968 124.997 119.085 125.137C119.202 125.272 119.29 125.443 119.351 125.648C119.416 125.853 119.449 126.094 119.449 126.369C119.449 126.654 119.412 126.903 119.337 127.118C119.262 127.333 119.16 127.512 119.029 127.657C118.903 127.797 118.761 127.902 118.602 127.972C118.443 128.042 118.28 128.077 118.112 128.077ZM118.049 127.629C118.161 127.629 118.268 127.608 118.371 127.566C118.478 127.524 118.574 127.456 118.658 127.363C118.742 127.265 118.807 127.137 118.854 126.978C118.905 126.819 118.931 126.626 118.931 126.397C118.931 126.187 118.91 126.005 118.868 125.851C118.826 125.692 118.765 125.562 118.686 125.459C118.611 125.356 118.52 125.282 118.413 125.235C118.306 125.184 118.189 125.158 118.063 125.158C117.89 125.158 117.736 125.212 117.601 125.319C117.47 125.422 117.368 125.569 117.293 125.76C117.218 125.947 117.181 126.164 117.181 126.411C117.181 126.593 117.197 126.759 117.23 126.908C117.263 127.057 117.312 127.186 117.377 127.293C117.447 127.4 117.536 127.484 117.643 127.545C117.755 127.601 117.89 127.629 118.049 127.629Z" fill="#C4C2CF"/>
</svg>
