<svg width="262" height="282" viewBox="0 0 262 282" fill="none" xmlns="http://www.w3.org/2000/svg">
<path d="M25.3196 57.5333C26.0673 54.345 28.1966 51.6557 31.1284 50.1968L127.04 2.46825C130.16 0.915651 133.831 0.933336 136.936 2.51592L230.471 50.1913C233.344 51.656 235.43 54.3081 236.177 57.4459L260.747 160.731C261.537 164.053 260.739 167.554 258.588 170.206L192.302 251.929C190.213 254.504 187.074 256 183.759 256H77.7823C74.4433 256 71.285 254.483 69.1974 251.877L3.34666 169.678C1.23399 167.04 0.450627 163.578 1.22214 160.289L25.3196 57.5333Z" fill="#555276" fill-opacity="0.68"/>
<path opacity="0.6" d="M89.0351 100.844L28 157.377L106.474 181.246L166.263 207L155.053 139.789L170 100.844L130.14 82L89.0351 100.844Z" fill="#E697FF" stroke="#A155B9" stroke-width="2"/>
<path opacity="0.6" d="M131.25 29L50 69.1491L53.125 153.211L85 230.373L177.5 231L233.75 159.484L235 52.8385L176.875 39.6646L131.25 29Z" fill="#FFC9E0" stroke="#F765A3" stroke-width="2"/>
<path opacity="0.6" d="M69 85.0208L130.938 3L151.585 118.831L191 147.632L142.826 155.145L94.0256 214L115.297 138.866L69 85.0208Z" fill="#B4E0F3" stroke="#73D9E6" stroke-width="2"/>
<path opacity="0.6" d="M131.959 55L212.715 69.4009L234 159.563L151.992 194L108.171 182.73L80 147.667L90.6423 103.212L131.959 55Z" fill="#63ABFD" stroke="#165BAA" stroke-width="2"/>
<path d="M26.3806 52.1851L131.624 0.557567L235.619 52.1837L261.459 165.395L189.06 256.181H72.9403L0.541044 165.395L26.3806 52.1851Z" stroke="#C4C2CF"/>
<path d="M47.8795 69.3325L131 29.3037L214.121 69.3325L234.65 159.276L177.129 231.406H84.8716L27.3504 159.276L47.8795 69.3325Z" stroke="#BDBDBD"/>
<path d="M67.4243 84.919L131 54.3025L194.576 84.919L210.278 153.714L166.282 208.882H95.7181L51.7224 153.714L67.4243 84.919Z" stroke="#BDBDBD"/>
<path d="M89.901 102.844L131 83.0513L172.099 102.844L182.25 147.316L153.808 182.981H108.192L79.7504 147.316L89.901 102.844Z" stroke="#BDBDBD"/>
<path d="M110.423 119.209L131 109.3L151.577 119.209L156.659 141.475L142.419 159.331H119.581L105.341 141.475L110.423 119.209Z" stroke="#BDBDBD"/>
<path d="M1.00586 164.993L131 135.619L234.745 52.4977" stroke="#BDBDBD"/>
<path d="M189.523 256.391L131.994 136.176L27.8955 53.4974" stroke="#BDBDBD"/>
<path d="M131.625 1.24994L131.371 135.162L72.9566 254.996" stroke="#BDBDBD"/>
<path d="M131.625 136.244L260.994 165.618" stroke="#BDBDBD"/>
</svg>
