<?xml version="1.0" encoding="iso-8859-1"?>
<!-- Uploaded to: SVG Repo, www.svgrepo.com, Generator: SVG Repo Mixer Tools -->
<svg version="1.1" id="Layer_1" xmlns="http://www.w3.org/2000/svg" xmlns:xlink="http://www.w3.org/1999/xlink" 
	 viewBox="0 0 512 512" xml:space="preserve">
<g>
	<polygon style="fill:#424242;" points="186.25,169.618 195.436,178.803 85.391,288.848 76.205,279.663 54.047,301.821 
		94.576,342.35 116.734,320.192 107.549,311.006 122.574,295.981 154.664,328.071 176.822,305.912 144.732,273.823 180.41,238.145 
		212.5,270.235 234.658,248.077 202.568,215.987 217.594,200.961 226.779,210.147 248.937,187.987 208.41,147.46 	"/>
	<polygon style="fill:#424242;" points="436.618,23.961 420.545,7.888 398.387,30.048 414.459,46.119 293.18,167.398 
		315.339,189.556 482.737,22.158 460.579,0 	"/>
</g>
<polygon style="fill:#C2C2C2;" points="240.748,342.092 207.684,375.156 229.843,397.314 279.068,348.088 235.579,263.267 
	207.712,277.598 "/>
<polygon style="fill:#424242;" points="255.083,419.775 192.607,303.901 157.761,338.746 220.238,454.621 "/>
<rect x="250.441" y="244.33" transform="matrix(-0.7071 -0.7071 0.7071 -0.7071 318.8567 662.4713)" style="fill:#8F8F8F;" width="92.38" height="41.736"/>
<polygon style="fill:#707070;" points="230.138,373.509 192.607,303.901 157.761,338.746 195.293,408.354 "/>
<polygon style="fill:#048F46;" points="260.765,199.815 131.903,328.676 29.263,431.316 109.948,512 176.214,372.988 
	305.076,244.126 305.076,244.126 369.908,179.293 325.597,134.983 "/>
<rect x="127.375" y="255.067" transform="matrix(-0.7071 0.7071 -0.7071 -0.7071 575.5014 334.4174)" style="fill:#424242;" width="182.231" height="62.664"/>
<rect x="116.289" y="259.662" transform="matrix(-0.7071 0.7071 -0.7071 -0.7071 548.7479 323.3574)" style="fill:#707070;" width="182.231" height="31.332"/>
<g>
	
		<rect x="258.414" y="162.814" transform="matrix(-0.7071 0.7071 -0.7071 -0.7071 645.6063 89.5403)" style="fill:#3DDB86;" width="91.69" height="31.332"/>
	
		<rect x="75.998" y="318.509" transform="matrix(0.7071 0.7071 -0.7071 0.7071 303.3858 49.7292)" style="fill:#3DDB86;" width="31.332" height="145.15"/>
</g>
</svg>