<svg width="27" height="27" viewBox="0 0 27 27" fill="none" xmlns="http://www.w3.org/2000/svg">
<path d="M26.9952 12.6851H25.1746C24.983 9.86426 23.7933 7.23846 21.775 5.22017C19.7567 3.20187 17.131 2.01223 14.3101 1.82065V0H12.6903V1.8207C9.86939 2.01223 7.24364 3.20197 5.22535 5.22017C3.20705 7.23846 2.01736 9.86426 1.82578 12.6851H0.00512695V14.305H1.82572C2.01731 17.1258 3.20699 19.7516 5.22529 21.7699C7.24359 23.7882 9.86939 24.9779 12.6903 25.1695V27.0001H14.3101V25.1695C17.131 24.9779 19.7567 23.7882 21.775 21.7699C23.7933 19.7516 24.983 17.1258 25.1746 14.305H26.9952V12.6851ZM14.31 3.44508C19.2251 3.83763 23.1576 7.77008 23.5501 12.6851H21.3887C21.0089 8.95802 18.0371 5.98629 14.31 5.60644V3.44508H14.31ZM14.3101 12.6851V11.0914C15.0584 11.3442 15.651 11.9369 15.9039 12.6851H14.3101ZM15.9039 14.305C15.651 15.0533 15.0584 15.6459 14.3101 15.8988V14.305H15.9039ZM14.3101 9.41802V7.23709C17.143 7.60165 19.3936 9.85224 19.7582 12.6851H17.5772C17.2512 11.0416 15.9537 9.74397 14.3101 9.41802ZM12.6903 3.44508V5.6065C8.96315 5.98629 5.99136 8.95802 5.61157 12.6851H3.45015C3.84271 7.77013 7.77521 3.83763 12.6903 3.44508ZM12.6902 17.5721V19.753C9.85731 19.3884 7.60672 17.1378 7.24211 14.3049H9.4231V14.305C9.74905 15.9485 11.0466 17.2461 12.6902 17.5721ZM12.6903 23.545C7.77521 23.1525 3.84271 19.22 3.45015 14.3049H5.61157C5.99136 18.032 8.96315 21.0038 12.6903 21.3836V23.545ZM12.6903 15.8988C11.942 15.6459 11.3493 15.0533 11.0965 14.305H12.6903V15.8988ZM12.6903 12.6851H11.0965C11.3493 11.9368 11.942 11.3442 12.6903 11.0914V12.6851ZM12.6903 9.41802H12.6903C11.0467 9.74397 9.7491 11.0416 9.42315 12.6851H7.24222C7.60682 9.85224 9.85742 7.60165 12.6903 7.23709V9.41802ZM14.31 19.753V17.5721H14.3101C15.9537 17.2461 17.2512 15.9485 17.5772 14.305H19.7581C19.3935 17.1378 17.1429 19.3884 14.31 19.753ZM14.3101 23.545V21.3836C18.0372 21.0037 21.009 18.032 21.3888 14.3049H23.5502C23.1576 19.22 19.2251 23.1525 14.3101 23.545Z" fill="#8284AA"/>
</svg>
