<svg width="28" height="22" viewBox="0 0 28 22" fill="none" xmlns="http://www.w3.org/2000/svg">
<path d="M2.1 2.0625H5.95C6.53188 2.0625 7 1.60273 7 1.03125C7 0.459766 6.53188 0 5.95 0H1.4C0.625625 0 0 0.614453 0 1.375V5.84375C0 6.41523 0.468125 6.875 1.05 6.875C1.63188 6.875 2.1 6.41523 2.1 5.84375V2.0625ZM7.69125 9.625C7.96703 9.625 8.2401 9.57165 8.49489 9.468C8.74967 9.36435 8.98117 9.21243 9.17617 9.02091C9.37118 8.82939 9.52586 8.60202 9.6314 8.35178C9.73693 8.10155 9.79125 7.83335 9.79125 7.5625C9.79125 7.29165 9.73693 7.02345 9.6314 6.77322C9.52586 6.52298 9.37118 6.29561 9.17617 6.10409C8.98117 5.91257 8.74967 5.76065 8.49489 5.657C8.2401 5.55335 7.96703 5.5 7.69125 5.5C7.41547 5.5 7.1424 5.55335 6.88761 5.657C6.63283 5.76065 6.40133 5.91257 6.20633 6.10409C6.01132 6.29561 5.85664 6.52298 5.7511 6.77322C5.64557 7.02345 5.59125 7.29165 5.59125 7.5625C5.59125 7.83335 5.64557 8.10155 5.7511 8.35178C5.85664 8.60202 6.01132 8.82939 6.20633 9.02091C6.40133 9.21243 6.63283 9.36435 6.88761 9.468C7.1424 9.57165 7.41547 9.625 7.69125 9.625ZM6.53188 11C5.24563 11 4.2 12.027 4.2 13.2902C4.2 13.9219 4.72062 14.4375 5.36812 14.4375H7.8225C8.1725 12.9723 9.2575 11.7863 10.675 11.275C10.3469 11.0988 9.96625 11 9.56812 11H6.53188ZM22.6319 14.4375C23.275 14.4375 23.8 13.9262 23.8 13.2902C23.8 12.0227 22.7544 11 21.4681 11H18.4319C18.0294 11 17.6531 11.0988 17.325 11.275C18.7425 11.7863 19.8275 12.9723 20.1775 14.4375H22.6319ZM18.7206 14.4375C18.3444 13.3934 17.4125 12.607 16.275 12.418C16.1044 12.3879 15.9294 12.375 15.75 12.375H12.25C12.0706 12.375 11.8956 12.3879 11.725 12.418C10.5875 12.607 9.65563 13.3934 9.27938 14.4375C9.16125 14.7598 9.1 15.1078 9.1 15.4688C9.1 16.0402 9.56812 16.5 10.15 16.5H17.85C18.4319 16.5 18.9 16.0402 18.9 15.4688C18.9 15.1078 18.8387 14.7598 18.7206 14.4375ZM20.3 9.625C20.5758 9.625 20.8489 9.57165 21.1036 9.468C21.3584 9.36435 21.5899 9.21243 21.7849 9.02091C21.9799 8.82939 22.1346 8.60202 22.2401 8.35178C22.3457 8.10155 22.4 7.83335 22.4 7.5625C22.4 7.29165 22.3457 7.02345 22.2401 6.77322C22.1346 6.52298 21.9799 6.29561 21.7849 6.10409C21.5899 5.91257 21.3584 5.76065 21.1036 5.657C20.8489 5.55335 20.5758 5.5 20.3 5.5C20.0242 5.5 19.7511 5.55335 19.4964 5.657C19.2416 5.76065 19.0101 5.91257 18.8151 6.10409C18.6201 6.29561 18.4654 6.52298 18.3599 6.77322C18.2543 7.02345 18.2 7.29165 18.2 7.5625C18.2 7.83335 18.2543 8.10155 18.3599 8.35178C18.4654 8.60202 18.6201 8.82939 18.8151 9.02091C19.0101 9.21243 19.2416 9.36435 19.4964 9.468C19.7511 9.57165 20.0242 9.625 20.3 9.625ZM16.8 8.25C16.8 7.52065 16.505 6.82118 15.9799 6.30546C15.4548 5.78973 14.7426 5.5 14 5.5C13.2574 5.5 12.5452 5.78973 12.0201 6.30546C11.495 6.82118 11.2 7.52065 11.2 8.25C11.2 8.97935 11.495 9.67882 12.0201 10.1945C12.5452 10.7103 13.2574 11 14 11C14.7426 11 15.4548 10.7103 15.9799 10.1945C16.505 9.67882 16.8 8.97935 16.8 8.25ZM22.05 2.0625H25.9V5.84375C25.9 6.41523 26.3681 6.875 26.95 6.875C27.5319 6.875 28 6.41523 28 5.84375V1.375C28 0.614453 27.3744 0 26.6 0H22.05C21.4681 0 21 0.459766 21 1.03125C21 1.60273 21.4681 2.0625 22.05 2.0625ZM2.1 19.9375V16.1562C2.1 15.5848 1.63188 15.125 1.05 15.125C0.468125 15.125 0 15.5848 0 16.1562V20.625C0 21.3855 0.625625 22 1.4 22H5.95C6.53188 22 7 21.5402 7 20.9688C7 20.3973 6.53188 19.9375 5.95 19.9375H2.1ZM22.05 19.9375C21.4681 19.9375 21 20.3973 21 20.9688C21 21.5402 21.4681 22 22.05 22H26.6C27.3744 22 28 21.3855 28 20.625V16.1562C28 15.5848 27.5319 15.125 26.95 15.125C26.3681 15.125 25.9 15.5848 25.9 16.1562V19.9375H22.05Z" fill="#4A4668"/>
</svg>
