<svg width="34" height="31" viewBox="0 0 34 31" fill="none" xmlns="http://www.w3.org/2000/svg">
<path d="M20.9543 5.34302e-05C20.2767 -0.00372776 19.6081 0.193839 18.8889 0.384062C16.9207 1.11768 14.6752 2.32178 12.9065 3.80865C11.4246 5.05448 10.3066 6.48748 9.8769 7.97501C14.3473 8.34557 18.439 8.29641 21.3844 7.08716C21.4169 6.99561 21.4411 6.91141 21.4517 6.83826C21.4822 6.62695 21.4617 6.45519 21.3354 6.18295C21.0827 5.63846 20.3266 4.77082 18.8892 3.3536L17.8842 2.36286C19.082 2.36868 20.3764 2.5317 21.4798 1.86789C22.2237 3.24053 23.4614 4.49974 25.1903 5.08444L25.7036 5.17912L25.6648 5.69968C25.6062 6.48682 25.9833 7.59319 26.6356 8.50969C27.2877 9.42626 28.1976 10.1362 29.0213 10.3114C29.6588 10.447 29.9605 10.3237 30.1402 10.1203C30.3199 9.91673 30.4413 9.49062 30.3218 8.81916C30.2139 8.21294 29.872 7.4487 29.3718 6.82786C28.9135 6.27064 28.1197 5.70077 27.261 5.53091C26.898 4.75504 26.6703 4.00608 26.0908 3.18687C25.7082 2.64587 25.2106 2.24971 24.8026 1.88847C24.3695 1.50497 23.9544 1.25381 23.3757 1.19302L23.1055 1.16466C22.6734 0.522584 22.2891 0.269536 21.4254 0.0373561C21.2695 0.0130812 21.112 0.000611747 20.9543 5.34302e-05ZM2.28224 4.9228L2.46148 6.30933L1.71884 6.21945C1.3104 6.17001 0.982818 6.26657 0.561361 6.50122C0.388808 6.59728 0.197058 6.73057 0 6.86865C0.517732 7.11174 0.947115 7.42303 1.36363 7.75229L1.91095 8.18501L0.219745 9.67102C1.25281 9.74221 2.32776 9.67997 3.25706 9.37791L4.44631 6.95431C4.23602 5.94415 3.87506 5.56116 3.39776 5.30295C3.09461 5.13898 2.70333 5.03245 2.28224 4.9228ZM5.44687 7.67288L5.26363 7.92971L4.37287 9.74512C5.08512 10.1158 5.64153 10.6104 6.10669 11.1517C6.16435 11.1047 6.22231 11.0584 6.28012 11.0118L7.97714 8.84629C7.23508 8.37291 6.42867 7.96236 5.44687 7.67288ZM21.337 8.34804C18.7908 9.26789 15.7155 9.44844 12.3963 9.30279L14.4954 10.3609C14.3456 10.8246 14.0614 11.3482 13.8611 11.569C12.96 12.6059 11.9296 13.79 11.1185 14.9752C10.4532 15.9474 9.96088 16.9145 9.77568 17.7433C13.709 16.8918 15.3522 15.1196 16.5212 13.7598C16.6144 13.4613 16.6097 13.2525 16.5435 13.2226C16.3216 13.122 15.6569 12.8273 15.4291 12.9611C15.3302 13.0261 15.1433 13.2138 14.8446 13.4633L14.4718 13.0168L14.0989 12.5702C14.3423 12.3669 14.5123 12.1713 14.79 11.9888C14.8677 11.9386 14.9502 11.8965 15.0363 11.863C15.1741 10.6077 16.3347 9.89462 17.8346 9.3614C18.3249 9.94625 17.7122 11.0461 17.0588 12.1649C17.1586 12.2246 17.2512 12.2955 17.3349 12.3762C19.0043 11.936 20.722 11.2831 22.4384 10.4459L21.337 8.34804ZM9.26602 9.0877L7.2561 11.6528C8.42194 12.3516 9.74877 12.7683 11.1866 12.9367C11.5686 12.4559 11.9593 11.9911 12.3387 11.5497C11.8143 11.0394 11.4342 10.4255 11.8334 9.2756C10.9905 9.22993 10.1334 9.16543 9.26602 9.0877ZM23.2339 11.3555C21.4046 12.2691 19.5495 12.996 17.7277 13.4883C17.6861 13.8074 17.7176 14.1536 17.5464 14.3539C17.3023 14.639 17.025 14.9576 16.7017 15.2917C18.0904 15.1632 19.3595 14.8544 20.5599 14.0152L21.8314 13.1261L20.7275 17.5755L20.573 17.6986C20.0661 18.1026 19.5044 18.6406 18.5497 18.9679C17.5951 19.2952 16.2975 19.4034 14.2613 19.1319C13.3647 19.0124 12.6917 18.6582 12.1639 18.2528C11.3089 18.5737 10.3331 18.8456 9.2109 19.0395L8.54432 19.1547L8.53021 18.4782C8.5012 17.076 9.2333 15.6699 10.1584 14.3182C10.2275 14.2173 10.298 14.1168 10.3694 14.0166C8.91713 13.7648 7.56077 13.2609 6.34425 12.4666C6.30869 12.4964 6.27219 12.526 6.23685 12.5559C5.4119 13.2561 4.66388 13.9817 4.09663 14.5935C4.24293 14.5714 4.3893 14.5404 4.53415 14.5256C5.21128 14.4563 5.86826 14.4485 6.44634 14.749L7.17786 15.1293L6.57418 15.691C5.83401 16.3796 5.20764 17.219 4.8192 18.0192C4.66995 18.3267 4.55477 18.6497 4.47569 18.9823C4.54164 18.9312 4.58084 18.9001 4.64868 18.8491C5.09079 18.5162 5.55704 18.1862 6.06859 18.0078L7.21654 17.6076L6.8081 18.7526C6.51404 19.577 6.20267 20.2507 6.07186 20.843C5.99325 21.1989 5.97697 21.5223 6.04219 21.8663L7.47344 20.6234L7.62004 21.6878C7.77158 22.7883 7.74271 23.3974 8.01045 24.1132L10.1156 21.7805L9.72681 23.8218C9.47486 25.1444 9.60502 26.2304 9.98553 27.2087L11.9317 24.4644L12.2461 25.6742C12.5077 26.6805 12.8728 27.3163 13.2617 27.6713C13.4949 27.8841 13.7417 28.0056 14.0214 28.0658C13.9994 27.7378 14.0055 27.3973 14.0912 27.0552C14.1671 26.7512 14.3108 26.4388 14.575 26.1955C14.8391 25.9522 15.2135 25.8094 15.6166 25.7962C16.1825 25.7776 16.683 26.0233 17.0459 26.3567C17.4087 26.6901 17.67 27.1035 17.8987 27.5226C18.1173 27.923 18.3155 28.3324 18.4958 28.6875C18.8274 27.7939 19.0827 26.7802 19.0125 26.1457L18.9268 25.3721L19.693 25.509C19.959 25.5561 20.2197 25.6298 20.4711 25.7289C21.3049 24.6017 22.4116 24.0821 23.5657 24.0291C23.7462 24.0209 23.9272 24.0238 24.1074 24.0376L24.1596 24.0416L24.2101 24.0548C24.5017 24.131 24.7543 24.2428 24.9724 24.3758C25.1443 22.8258 24.9054 21.3347 24.2871 19.8953L23.9457 19.1007L24.8105 19.0841C25.1278 19.078 25.4435 19.117 25.7447 19.21C25.4277 18.1375 24.8794 17.1488 23.918 16.0617L23.0002 15.0239L24.3837 15.0954C24.9598 15.1252 25.4508 15.2848 25.9027 15.5143C25.294 14.0038 24.3017 12.5364 23.2339 11.3555ZM27.0364 13.2925C26.7843 13.2934 26.5022 13.3279 26.1817 13.3975C26.7984 14.4696 27.2792 15.6233 27.5224 16.8018L27.5968 17.1625C27.9049 17.325 28.1765 17.5346 28.423 17.77C29.1903 17.0769 30.0116 16.639 30.8324 16.3319C29.9074 15.2076 29.1961 14.2753 28.536 13.8002C28.1328 13.5099 27.73 13.3285 27.2051 13.297C27.149 13.2937 27.0926 13.2922 27.0364 13.2925ZM20.0028 15.665C18.7345 16.2405 17.4154 16.4284 16.1063 16.5021C15.8398 16.5172 15.5733 16.5275 15.3067 16.5362C14.778 16.9386 14.1642 17.3341 13.4425 17.6961C13.7137 17.829 14.0257 17.9268 14.4149 17.9787C16.3465 18.2362 17.4503 18.115 18.1724 17.8674C18.823 17.6443 19.2129 17.3023 19.6937 16.9105L20.0028 15.665ZM31.9435 17.1946C30.8735 17.5055 29.8936 17.931 28.9813 18.8443C28.6321 19.3231 28.5168 20.1499 28.6405 21.0192C28.6988 21.4289 28.8117 21.8389 28.9484 22.2134C28.9995 22.0749 29.0473 21.9424 29.1008 21.8035C29.3308 21.2062 29.5182 20.6418 29.9892 20.2359L30.5146 19.7829L31.6418 21.6788C32.0498 21.1245 32.2319 20.5603 32.153 19.9292L32.0151 18.8263L34 19.865C33.8882 19.4584 33.766 19.0592 33.5993 18.7006C33.269 17.9898 32.8334 17.4574 31.9435 17.1946ZM6.93761 24.5533C6.89594 24.5709 6.85238 24.5901 6.80556 24.6125C6.51484 24.7519 6.14647 24.9773 5.81052 25.2535C5.24727 25.7166 4.82749 26.281 4.77433 26.8242C5.54824 27.2128 6.49041 27.3022 7.66839 27.0449L8.53894 26.2608C8.49084 25.9634 8.46138 25.6632 8.45074 25.362L7.77201 26.1142L7.36808 25.4386C7.18033 25.1244 7.04232 24.8331 6.93761 24.5533ZM23.6063 25.1847C22.8723 25.1987 22.2577 25.4407 21.6914 26.0704C22.1813 26.3118 22.5829 26.6704 22.8341 27.1344L25.166 26.4201C25.0248 26.1669 24.9167 25.9396 24.7926 25.7642C24.6076 25.5028 24.421 25.325 23.9617 25.1959C23.8407 25.188 23.7213 25.1825 23.6063 25.1847ZM25.979 27.388L23.1025 28.269L23.1575 29.4218C24.6199 30.208 25.6568 30.3616 26.4787 30.2925C27.1526 30.2357 27.7028 30.0234 28.2589 29.8213C28.1228 29.4597 27.8375 29.0836 27.4298 28.682C27.0066 28.2653 26.4815 27.8438 25.979 27.388ZM4.21275 27.8443C3.01732 28.1857 2.49704 28.5569 2.10961 28.9677C1.84755 29.2454 1.6294 29.5854 1.34341 29.959C2.1736 30.2848 3.10268 30.5329 3.98828 30.5835C5.07661 30.6456 6.06023 30.4235 6.81821 29.7604L7.14579 28.308C6.05899 28.4287 5.06905 28.2825 4.21275 27.8443Z" fill="#8284AA"/>
</svg>
