<svg width="30" height="24" viewBox="0 0 30 24" fill="none" xmlns="http://www.w3.org/2000/svg">
<path d="M19.7519 0.133118C17.9515 0.132493 16.287 1.01743 15.5095 2.67374C16.8088 2.78274 16.5094 6.11562 16.5094 6.11562C15.7711 7.15856 14.9638 8.18974 14.2226 9.24974C14.2226 9.24974 8.03226 17.5174 3.07401 19.7513C1.32095 21.1634 0.992452 22.0346 0.315452 23.0419C0.0106392 23.6381 0.894014 23.9371 1.04676 23.8669C2.46714 23.2131 2.62026 22.5627 3.98864 21.6372C4.78895 21.3231 5.47858 20.6434 5.97951 20.9466C8.16464 22.2504 12.7018 23.7141 13.3715 23.3657C14.4875 22.7868 13.0102 20.6417 14.3823 17.7997C16.3805 17.5902 18.0646 17.7444 19.9031 17.0438C20.1208 20.1862 20.5347 20.4557 20.3259 23.7371L24.7759 23.8024L24.8196 22.8892L22.2062 22.1952C22.9267 18.6918 22.9447 17.2579 22.4982 14.1954C22.4384 13.7816 19.1391 13.6782 17.4349 13.9586C18.963 12.4459 19.9521 11.1311 20.4041 9.68106L20.4058 9.69287C20.8831 10.6881 22.2859 11.8152 22.6143 12.0132C24.3458 12.7037 25.0026 12.5121 26.5489 12.2561C26.8556 12.2071 28.2658 13.7897 29.3494 12.8559C29.5145 11.5911 30.382 11.5829 29.0408 10.8116C28.7378 10.6409 27.3493 11.2779 27.0771 11.2427C25.814 11.0876 25.1425 10.917 23.424 10.4487C22.7846 9.62456 21.3818 6.94024 19.9596 6.71474C20.3681 5.83037 21.7238 3.39549 24.5636 2.57493C23.2547 0.91618 21.4433 0.133806 19.7519 0.133118ZM24.9023 3.05324C21.9861 4.27299 21.2606 6.20324 21.2606 6.20324L21.8804 6.68099C21.8804 6.68099 22.4833 6.38318 24.9023 3.05324ZM26.3423 13.0536L26.0511 13.7672C26.3782 13.762 26.7027 13.7966 27.0091 13.8677C26.2108 15.7962 25.513 17.5949 25.2478 19.6861L25.1911 20.1584L25.495 19.7904C26.7953 18.1859 27.5139 16.3372 28.3044 14.4291C28.5671 14.5951 28.8194 14.7969 29.0588 15.0135L29.3576 14.3026L28.0752 13.7697L26.0898 17.9309L27.5936 13.5739L26.3423 13.0536Z" fill="#8284AA"/>
</svg>
